<?xml version="1.0" encoding="utf-8"?>
<!-- Generator: Adobe Illustrator 26.3.0, SVG Export Plug-In . SVG Version: 6.00 Build 0)  -->
<svg version="1.1" id="Capa_1" xmlns="http://www.w3.org/2000/svg" xmlns:xlink="http://www.w3.org/1999/xlink" x="0px" y="0px"
	 viewBox="0 0 500 500" style="enable-background:new 0 0 500 500;" xml:space="preserve">
<style type="text/css">
	.st0{fill:#FFFFFF;}
</style>
<g>
	<g>
		<path class="st0" d="M249.5,436.7c-3.9,0-7.9-1.4-11.1-4.1C234.2,429.1,136.7,345.4,96,254c-3.8-8.6,0-18.7,8.7-22.6
			c8.6-3.8,18.7,0,22.6,8.7c29.7,66.8,95.4,131.7,121.9,156.2C295.9,351,386.3,249.7,386.3,184c0-77.6-61.4-140.8-136.9-140.8
			S112.6,106.4,112.6,184c0,9.4-7.7,17.1-17.1,17.1s-17.1-7.7-17.1-17.1c0-96.5,76.7-175,171.1-175s171.1,78.5,171.1,175
			c0,101.1-153,242.2-159.5,248.2C257.7,435.2,253.6,436.7,249.5,436.7z"/>
	</g>
	<g>
		<path class="st0" d="M249.5,248.5c-37.7,0-68.4-30.7-68.4-68.4s30.7-68.4,68.4-68.4s68.4,30.7,68.4,68.4S287.2,248.5,249.5,248.5z
			 M249.5,145.9c-18.9,0-34.2,15.3-34.2,34.2s15.3,34.2,34.2,34.2s34.2-15.3,34.2-34.2S268.3,145.9,249.5,145.9z"/>
	</g>
	<g>
		<path class="st0" d="M471.9,488H27.1c-6.1,0-11.7-3.2-14.8-8.5s-3.1-11.8-0.1-17.1l68.4-119.8c4.7-8.2,15.1-11.1,23.3-6.4
			s11.1,15.1,6.4,23.3l-53.8,94.2h385.8l-53.8-94.2c-4.7-8.2-1.8-18.6,6.4-23.3c8.2-4.7,18.6-1.8,23.3,6.4l68.4,119.8
			c3,5.3,3,11.8-0.1,17.1C483.6,484.8,477.9,488,471.9,488z"/>
	</g>
</g>
</svg>
