<?xml version="1.0" encoding="utf-8"?>
<!-- Generator: Adobe Illustrator 26.3.0, SVG Export Plug-In . SVG Version: 6.00 Build 0)  -->
<svg version="1.1" id="Capa_1" xmlns="http://www.w3.org/2000/svg" xmlns:xlink="http://www.w3.org/1999/xlink" x="0px" y="0px"
	 viewBox="0 0 500 500" style="enable-background:new 0 0 500 500;" xml:space="preserve">
<style type="text/css">
	.st0{fill:#FFFFFF;}
</style>
<path class="st0" d="M40.5,144h414c19,0,34.5-15.5,34.5-34.5S473.5,75,454.5,75h-414C21.4,75,6,90.5,6,109.5S21.4,144,40.5,144z
	 M454.5,213h-414C21.4,213,6,228.5,6,247.5S21.4,282,40.5,282h414c19,0,34.5-15.5,34.5-34.5S473.5,213,454.5,213z M454.5,351h-414
	C21.4,351,6,366.5,6,385.5S21.4,420,40.5,420h414c19,0,34.5-15.5,34.5-34.5S473.5,351,454.5,351z"/>
</svg>
