<?xml version="1.0" encoding="utf-8"?>
<!-- Generator: Adobe Illustrator 26.3.0, SVG Export Plug-In . SVG Version: 6.00 Build 0)  -->
<svg version="1.1" id="Capa_1" xmlns="http://www.w3.org/2000/svg" xmlns:xlink="http://www.w3.org/1999/xlink" x="0px" y="0px"
	 viewBox="0 0 500 500" style="enable-background:new 0 0 500 500;" xml:space="preserve">
<style type="text/css">
	.st0{fill:#FFFFFF;}
	.st1{fill:none;}
</style>
<g>
	<g>
		<g>
			<path class="st0" d="M68.9,274.7c-8-10.7-15.9-21.6-22.9-33c-3.5-5.6-6.8-11.4-9.8-17.2c-1.5-2.9-2.9-5.8-4.2-8.8
				c-0.4-0.8-0.7-1.6-1.1-2.4c-0.1-0.1-0.4-0.8,0-0.1c-0.2-0.4-0.3-0.8-0.5-1.2c-0.7-1.6-1.3-3.3-1.9-4.9c-2.3-6-4.2-12.1-5.6-18.4
				c-0.7-3.1-1.3-6.3-1.8-9.5c-0.1-0.4-0.1-0.9-0.2-1.3c-0.2-1.4,0.1,0.9-0.1-0.5c-0.1-0.7-0.2-1.5-0.3-2.2
				c-0.2-1.8-0.3-3.5-0.5-5.3c-0.2-3.3-0.2-6.5,0-9.8c0.1-1.6,0.2-3.2,0.4-4.8c0.1-0.7,0.2-1.5,0.2-2.2c0-0.1,0.2-1.5,0.1-0.5
				c0.1-0.4,0.1-0.9,0.2-1.3c1-6.4,2.6-12.8,4.8-19c0.6-1.6,1.2-3.3,1.8-4.9c0.3-0.8,0.7-1.6,1-2.4c-0.4,0.9,0.2-0.4,0.2-0.5
				c0.2-0.5,0.5-1.1,0.7-1.6c1.5-3.3,3.1-6.5,4.9-9.7c3.5-6.4,7.5-12.5,11.9-18.3c1.5-2,0.4-5.3-1.7-6.4c-2.5-1.3-4.9-0.4-6.5,1.7
				c-16.1,21.6-27.6,47.5-27.6,74.7c0,13.4,2.8,26.9,7.1,39.6c4.4,12.9,10.5,25.3,17.4,37c7.8,13.1,16.7,25.6,25.8,37.8
				c1.5,2,4.2,3.2,6.5,1.7C69.2,279.8,70.5,276.8,68.9,274.7L68.9,274.7z"/>
		</g>
	</g>
	<g>
		<g>
			<path class="st0" d="M393.9,323.2c-4.6,5.8-9.7,11.2-14.2,17.1c-1.1,1.4-2.1,2.9-3.1,4.3c-1,1.5-2.1,2.8-3.3,4.3
				c-2.5,3-5.1,6-7.6,9c-10.1,11.6-20.4,23-30.7,34.5c-5.1,5.7-10,11.7-15.3,17.3c-5.4,5.7-11,11.1-16.4,16.8
				c-5.3,5.6-10.5,11.2-15.7,16.8c-1.3,1.3-2.5,2.7-3.7,4c-1.5,1.7-2.2,3.3-3.1,5.3c-0.1,0.3-0.2,0.6-0.3,0.8
				c0.3-0.8-0.1,0.1-0.2,0.3c-0.1,0.2-0.6,1-0.1,0.3c-0.2,0.2-0.5,0.5-0.7,0.7c-1.1,1.2-2.2,2.4-3.3,3.7c-2,2.4-3.9,4.9-6.2,7
				c-1.2,1.1-1.3,1.2-2.7,2.1c-1.3,0.8-3.1,1.7-4.1,2.1c-0.8,0.3-1.6,0.5-2.5,0.7c0.2,0-1.5,0.3-0.9,0.2c0.6-0.1-1,0.1-0.9,0.1
				c-2,0.1-2.5,0.1-4.3-0.4c-3-0.8-5.8-2.8-8.7-4.6c-5.4-3.5-9.9-7.5-15.1-11.9c-5.4-4.6-10.9-9.1-16.9-12.9
				c-5.9-3.7-11.2-9-16.3-13.9c-2.6-2.5-5.1-5-7.4-7.7c-2.4-2.7-4.7-5.4-7.5-7.8c-11.3-9.7-21.3-20.7-31-31.9
				c-9.6-11.1-19.1-22.2-30-32.1c-0.6-0.6-1.4-1.1-1.9-1.7c0.3,0.3-0.3-0.5-0.4-0.6c-0.2-0.4-0.5-0.8-0.7-1.2
				c-0.9-1.5-1.9-3-2.9-4.5c-1.9-2.9-4-5.7-6.1-8.4c-4.4-5.8-8.7-11-13-17c-2.1-2.9-4.1-5.8-6-8.8c-1.4-2.1-4.2-3-6.5-1.7
				c-2.2,1.2-3.1,4.3-1.7,6.4c7.9,12.5,17.6,22.9,25.7,35.1c0.9,1.4,1.9,2.8,2.7,4.3c0.5,0.9,1,1.8,1.7,2.6c0.8,0.8,1.7,1.5,2.5,2.2
				c2.8,2.5,5.4,5.1,8.1,7.8c5.2,5.2,10.1,10.7,14.9,16.3c9.9,11.3,19.5,22.8,30.5,33.1c2.8,2.7,5.8,5.2,8.7,7.8
				c2.8,2.4,5,5.4,7.4,8.1c4.9,5.5,10.5,10.7,16.2,15.5c5.6,4.7,12.1,8.6,17.4,12.8c5.2,4.2,10.2,8.8,15.5,12.9
				c2.8,2.2,5.7,4.3,8.7,6.2c3.3,2,6.6,4.1,10.4,4.9c7.8,1.7,15.7-1,21.8-5.8c2.4-1.9,4.4-4.3,6.4-6.7c1-1.2,1.9-2.4,2.9-3.5
				c1.3-1.4,2.8-2.7,3.8-4.4c0.9-1.3,1.3-2.9,2-4.3c-0.5,1,0.9-1.4,0.3-0.6c0.7-0.9,1.6-1.7,2.3-2.5c2.6-2.8,5.2-5.6,7.8-8.4
				c5.3-5.7,10.7-11.4,16.1-17c2.8-2.9,5.6-5.8,8.5-8.6c2.8-2.8,5.3-5.9,8-8.9c10.4-11.7,20.9-23.3,31.3-35
				c5.2-5.9,10.4-11.9,15.5-17.9c1.4-1.6,2.8-3.2,4.1-4.9c1.1-1.6,2.2-3.3,3.4-4.9c1.9-2.5,4.1-5.2,6.3-7.7c2.4-2.8,4.8-5.5,7.1-8.4
				c1.6-2,1.9-4.7,0-6.6C399,321.5,395.5,321.2,393.9,323.2L393.9,323.2z"/>
		</g>
	</g>
	<g>
		<g>
			<path class="st0" d="M441.5,261.6c-8,10.9-16.5,21.5-24.8,32.2c-1.5,2-0.4,5.3,1.7,6.4c2.5,1.3,4.9,0.4,6.5-1.7
				c8.3-10.7,16.7-21.3,24.8-32.2c1.5-2,0.4-5.3-1.7-6.4C445.6,258.7,443.1,259.5,441.5,261.6L441.5,261.6z"/>
		</g>
	</g>
	<g>
		<g>
			<path class="st0" d="M55.4,80c19.2-21.3,45.5-35.8,74.1-40.1c29.8-4.6,61.1,3.1,86.1,19.5c13.8,9.1,25.8,20.9,34.7,34.8
				c1.5,2.3,5.4,3.3,7.4,0.9c16.2-19.1,39.1-30.6,62.2-39.6c22.8-8.9,48.1-14.5,72.6-11.2C405,46,417.1,50.1,428,56.4
				c10.7,6.2,19.9,14.7,27.6,24.2c7.3,9.1,13,19.4,17.8,29.9c5.2,11.4,8.5,23.5,9.5,36c2.1,25.6-4.1,51.5-15.5,74.5
				c-1.5,3-3,5.9-4.6,8.8c-3,5.3,5.2,10,8.2,4.7c13.4-23.9,22-51.1,21.8-78.6c-0.2-26.4-9.4-51.8-24.3-73.5
				c-15.2-22.2-37.3-39-63.9-45.3c-25.9-6.1-53.1-2.1-78,6.1c-12.6,4.1-24.9,9.3-36.7,15.4c-11.7,6.1-22.8,13.5-32.3,22.7
				c-2.4,2.3-4.6,4.7-6.7,7.2c2.5,0.3,4.9,0.6,7.4,0.9c-17.3-27-45-46.7-76-55.3s-64-5.4-92.8,8.6c-15.4,7.5-29.4,18-40.8,30.7
				C44.7,77.9,51.4,84.5,55.4,80L55.4,80z"/>
		</g>
	</g>
	<g>
		<g>
			<path class="st0" d="M37.7,90.1c-1.2,2-2.5,4-3.7,6.1c-0.3,0.5-0.5,1.1-0.6,1.7s-0.1,1.2,0.1,1.9c0.1,0.6,0.4,1.1,0.9,1.6
				c0.3,0.5,0.8,0.9,1.3,1.2c1.1,0.6,2.4,0.9,3.6,0.5c1.2-0.4,2.2-1.1,2.8-2.2c1.2-2,2.5-4,3.7-6.1c0.3-0.5,0.5-1.1,0.6-1.7
				s0.1-1.2-0.1-1.9c-0.1-0.6-0.4-1.1-0.9-1.6c-0.3-0.5-0.8-0.9-1.3-1.2c-1.1-0.6-2.4-0.9-3.6-0.5C39.3,88.3,38.3,89,37.7,90.1
				L37.7,90.1z"/>
		</g>
	</g>
	<path class="st1" d="M483,130.9l-7.5-22.1l-20-32.8l-12.2-13L422,48.9l-27-7.5l-44.6,2l-40.8,10.8L290.4,63l-36.1,28.8l-17-20.8
		l-19.6-15.8L188.8,41L155,34.1L115.5,38L81.3,52.6L52.7,76l-26,42.1l-9.4,26.1l-2.4,18.5l5.7,36l17.5,38.1L91.3,313l97.2,108.9
		l58.8,48.5l14,4.3l35.6-33.8l90.2-103.4l69.8-92.2l26.2-57.7l3.5-24.9L483,130.9z M77.3,250.6c-1.2,2.3-2.8,4.2-4.3,6.2
		c-1.7,2.4-4.5,3.3-7.2,1.9c-2.3-1.2-3.5-4.9-1.9-7.1c1.5-2,3.1-4,4.3-6.2c1.3-2.6,4.8-3.1,7.2-1.9
		C78.1,244.8,78.6,248.1,77.3,250.6z M153.1,231.8c-0.1,0.5-0.4,0.9-0.7,1.2c-0.2,0.3-0.5,0.7-0.7,0.9c-0.3,0.4-0.7,0.7-1.2,0.9
		c-0.9,0.5-1.7,0.7-2.8,0.7c-0.9,0-1.8-0.2-2.6-0.7c-0.4-0.3-0.7-0.5-1.1-0.8c-0.7-0.6-1.1-1.4-1.4-2.3c-0.1-0.5-0.1-0.9-0.2-1.4
		c0-0.7,0.1-1.4,0.5-2c0.2-0.6,0.6-1.2,1.1-1.7c0.1-0.1,0.2-0.2,0.3-0.3c0-0.1,0.1-0.1,0.1-0.2l0.1-0.1c0.7-0.6,1.4-1.1,2.3-1.3
		c0.5-0.1,0.9-0.1,1.4-0.2c0.9,0,1.8,0.2,2.6,0.7c0.4,0.3,0.7,0.5,1.1,0.8c0.5,0.5,0.9,1,1.1,1.7c0.3,0.6,0.5,1.3,0.5,2
		C153.5,230.5,153.4,231.2,153.1,231.8z M165.7,228.9c-0.2,0.6-0.6,1.2-1.1,1.7s-1,0.9-1.7,1.1c-0.6,0.3-1.3,0.5-2,0.4
		c-1.2-0.1-1.3-0.1-2.2-0.5c-0.3-0.1-0.6-0.2-0.8-0.4c-0.5-0.4-1.1-0.8-1.5-1.2c-0.7-0.6-1.1-1.4-1.4-2.3c-0.1-0.5-0.1-0.9-0.2-1.4
		c0-0.9,0.2-1.8,0.7-2.6c0.3-0.4,0.5-0.7,0.8-1.1c0.5-0.5,1-0.9,1.7-1.1c0.6-0.3,1.3-0.5,2-0.4c0.7,0,1.4,0.1,2,0.4
		c0.5,0.2,0.9,0.4,1.3,0.7c0.1,0,0.1,0.1,0.2,0.1c0.4,0.3,0.7,0.5,1.1,0.8c0.7,0.6,1.1,1.4,1.4,2.3c0.1,0.5,0.1,0.9,0.2,1.4
		C166.2,227.6,166,228.3,165.7,228.9z M267.9,201.2c-6.8,0-6.8-10.4,0-10.4C274.7,190.8,274.7,201.2,267.9,201.2z M340.9,268.9
		c0,1.4-0.6,2.7-1.5,3.7s-2.4,1.5-3.7,1.5c-1.3,0.1-2.8-0.6-3.7-1.5c-1-0.9-1.5-2.3-1.5-3.7v-2.6c0-1.4,0.6-2.7,1.5-3.7
		s2.4-1.5,3.7-1.5c1.3-0.1,2.8,0.6,3.7,1.5c1,0.9,1.5,2.3,1.5,3.7V268.9z M347.7,238.5c-2.4,1.5-5.8,0.5-7.2-1.9
		c-0.2-0.3-0.4-0.6-0.6-0.9c-0.3-0.3-0.6-0.7-1-1l0,0c-2.5-1.5-3.2-4.6-1.9-7.1c1.3-2.4,4.9-3.3,7.2-1.9c2.2,1.4,4,3.3,5.3,5.6
		C351.1,233.9,350.1,237,347.7,238.5z M367.1,356.4c-1,1-2.1,2-3.4,2.8c-1.2,0.8-2.7,0.8-4,0.5s-2.4-1.3-3.1-2.4s-0.9-2.8-0.5-4
		s1.1-2.2,2.2-2.9c0.5-0.4,1-0.9,1.5-1.4c1-1,2.3-1.5,3.7-1.5c1.4-0.1,2.7,0.6,3.7,1.5s1.5,2.4,1.5,3.7
		C368.7,354,368.1,355.4,367.1,356.4z"/>
	<g>
		<g>
			<path class="st0" d="M67.2,139.4c1.3-3.8,2.7-7,4-10.1c1.6-3.5,3.3-7,5.2-10.4c1.9-3.4,3.9-6.7,6-9.9c1-1.5,2.1-3.1,3.2-4.6
				c0.5-0.8,1.1-1.5,1.7-2.3c0.3-0.4,0.5-0.7,0.8-1.1s0.3-0.4,0,0c0.2-0.2,0.3-0.4,0.5-0.6c1.9-2.4,4-4.8,6.2-7
				c1.1-1.1,2.2-2.1,3.3-3.1c0.6-0.5,1.1-1,1.7-1.4c0.3-0.2,0.6-0.5,0.9-0.7c0.4-0.3,0.4-0.3-0.1,0.1c0.2-0.1,0.4-0.3,0.6-0.4
				c2.5-1.8,5.1-3.4,7.9-4.8c0.7-0.3,1.4-0.6,2.1-0.9c1.2-0.5-0.9,0.3,0.3-0.1c0.4-0.1,0.7-0.3,1.1-0.4c1.6-0.6,3.2-1.1,4.9-1.5
				c1.5-0.4,2.9-0.7,4.4-1c0.8-0.2,1.7-0.3,2.5-0.5c0.4-0.1,0.9-0.1,1.3-0.2c0.2,0,2-0.3,0.9-0.1c3.5-0.5,7.1-0.7,10.7-0.8
				s7.1,0,10.7,0.3c0.9,0.1,1.7,0.2,2.6,0.2c0.4,0.1,0.9,0.1,1.3,0.1c1.4,0.2-1-0.1,0.4,0.1c1.8,0.3,3.7,0.6,5.5,0.9
				c3.4,0.7,6.7,1.5,9.9,2.5c1.6,0.5,3.3,1,4.9,1.6c0.8,0.3,1.6,0.6,2.4,0.9c0.4,0.2,0.8,0.3,1.2,0.5c0.3,0.1,0.5,0.2,0.8,0.3
				c-0.5-0.2-0.5-0.2,0.1,0c6.5,2.8,12.8,6.3,18.6,10.4c0.8,0.6,1.6,1.2,2.4,1.8c-0.6-0.5-0.1,0,0.1,0.1c0.5,0.4,0.9,0.7,1.4,1.1
				c1.6,1.3,3.1,2.6,4.6,4c3,2.8,5.9,5.7,8.5,8.8c0.7,0.8,1.3,1.6,2,2.3c0,0.1,0.9,1.2,0.3,0.4c0.4,0.5,0.7,0.9,1.1,1.4
				c1.2,1.6,2.4,3.3,3.5,5c2.2,3.4,4.2,6.9,6,10.6c2.5-1.9,4.9-3.8,7.4-5.7c-10.4-11.4-22.9-20.8-36.5-28.2c-6.9-3.7-14-7-21.4-9.8
				c-8.2-3.1-16.5-5.5-25.3-6.6c-8.7-1.1-17.4-0.4-25.8,1.7s-16.4,5.4-24.3,9c-6.8,3-13.5,6.3-19.5,10.7c-3.1,2.3-6.1,4.7-8.6,7.6
				c-2.1,2.3-4.3,4.8-5.4,7.7c-2.6,6.4-5.1,12.8-7.7,19.2c-0.1,0.2-0.2,0.4-0.2,0.6c-0.9,2.3,1,5.2,3.3,5.8
				C64.1,143.3,66.2,141.9,67.2,139.4c2.4-6.1,4.8-12.1,7.3-18.2c0.2-0.5,0.4-0.9,0.6-1.4c0-0.1,0.1-0.2,0.1-0.3v-0.1
				c0.1-0.1,0.3-1.5-0.1,0.4c-0.1,0.8,0,0.1,0.2-0.1c0.5-0.7,0.9-1.4,1.4-2c0.3-0.4-0.1,0.1-0.1,0.1c0.1-0.2,0.3-0.3,0.4-0.5
				c0.3-0.4,0.6-0.7,0.9-1.1c1.2-1.3,2.5-2.6,3.8-3.8c0.6-0.6,1.3-1.1,1.9-1.6c0.2-0.2,1-0.8,0.3-0.3c0.4-0.3,0.8-0.6,1.2-0.9
				c1.4-1,2.8-2,4.3-2.9c3-1.8,6.1-3.5,9.3-5c3.6-1.7,7.2-3.3,10.8-4.9c0,0,0.7-0.3,0.3-0.1c-0.4,0.2,0.3-0.1,0.3-0.1
				c0.5-0.2,0.9-0.4,1.3-0.6c1-0.4,2-0.8,2.9-1.1c1.9-0.7,3.8-1.4,5.7-2c3.9-1.2,7.9-2.3,12-3c0.5-0.1,1-0.1,1.4-0.2
				c0.6-0.1,0,0-0.1,0c0.2,0,0.5-0.1,0.7-0.1c1.1-0.1,2.1-0.2,3.2-0.3c2.1-0.1,4.2-0.1,6.3,0c1,0,1.9,0.1,2.9,0.2
				c0.5,0,1,0.1,1.5,0.1c0.2,0,0.5,0.1,0.7,0.1c0.8,0.1-0.6-0.1,0.2,0c2,0.3,4,0.6,6,1.1c4.1,0.9,8,2,12,3.4c1.9,0.6,3.7,1.3,5.5,2
				c0.8,0.3,1.6,0.6,2.4,1c0.4,0.2,0.8,0.3,1.2,0.5c0.2,0.1,0.4,0.2,0.6,0.2c0.5,0.2-0.5-0.2,0.3,0.1c3.4,1.4,6.7,3,9.9,4.6
				c6.6,3.3,12.9,7.1,18.9,11.3c0.8,0.5,1.5,1.1,2.3,1.7c0.3,0.3,0.7,0.5,1.1,0.8c0.2,0.1,0.3,0.3,0.5,0.4c0.6,0.4-0.5-0.4,0.1,0.1
				c1.4,1.1,2.8,2.2,4.2,3.4c2.8,2.4,5.6,4.9,8.2,7.5c1.3,1.3,2.5,2.6,3.8,3.9c1.6,1.7,4.4,1.7,6.2,0.4c1.9-1.5,2.3-3.9,1.2-6
				c-6.7-13.5-16.5-25.7-28.4-35.1S179,74.7,164.2,71.2c-14.8-3.6-30.2-4-45.1-1.1c-6.7,1.3-13.3,3.7-19.2,7.3
				c-5.7,3.5-10.8,8-15.3,13c-10.6,12-18.7,26.2-24.6,40.9c-0.8,1.9-1.5,3.8-2.1,5.6c-0.8,2.3,0.9,5.2,3.3,5.8
				C64,143.3,66.3,141.9,67.2,139.4z"/>
		</g>
	</g>
	<g>
		<g>
			<path class="st0" d="M295,126.9c1.6-7.4,3.6-14.7,6.2-21.8c1.3-3.6,2.5-6.6,3.9-9.6c1.4-3.1,2.9-6.2,4.7-9.1
				c0.5-0.7,1-1.4,1.5-2.2c0.8-1.1-0.6,0.6,0.3-0.4c0.2-0.2,0.4-0.4,0.6-0.7c0.6-0.6,1.2-1.3,1.8-1.9c0.3-0.3,0.7-0.6,1-0.8
				c0.8-0.7-0.4,0.2,0.4-0.3c1.4-1,2.8-1.8,4.4-2.6c0.3-0.1,0.5-0.2,0.8-0.4c1.3-0.6-0.9,0.3,0.4-0.2c0.9-0.4,1.9-0.7,2.8-1
				c3.2-1,6.5-1.7,9.7-2.3c1.7-0.3,3.4-0.6,5.2-0.9c0.9-0.1,1.7-0.2,2.6-0.4c0.9-0.1-1.1,0.1,0.4-0.1c0.6-0.1,1.3-0.2,1.9-0.2
				c7.3-0.8,14.6-1.1,21.9-0.8c1.8,0.1,3.6,0.2,5.4,0.4c0.9,0.1,1.7,0.2,2.6,0.3c0.5,0.1,0.9,0.1,1.4,0.2c0.6,0.1,0.6,0.1,0.1,0
				c0.3,0,0.6,0.1,0.9,0.1c3.6,0.5,7.1,1.2,10.7,2.1c3.5,0.9,7,2,10.4,3.2c0.8,0.3,1.6,0.6,2.3,0.9c0.2,0.1,0.8,0.4,0,0
				c0.4,0.2,0.7,0.3,1.1,0.5c1.4,0.6,2.9,1.3,4.3,2c2.7,1.4,5.3,2.9,7.8,4.5c1.3,0.8,2.5,1.7,3.7,2.5c0.3,0.2,0.5,0.4,0.8,0.6
				c0.1,0.1,1.2,0.9,0.3,0.2c0.7,0.6,1.4,1.1,2.1,1.7c2.6,2.2,5.1,4.5,7.4,6.9c1.1,1.2,2.2,2.5,3.3,3.8c0.2,0.2,0.3,0.4,0.5,0.6
				c0.3,0.4,0.3,0.4,0,0c0.2,0.2,0.3,0.4,0.5,0.6c0.5,0.7,1.1,1.5,1.6,2.2c1.9,2.7,3.5,5.5,5,8.5c0.4,0.7,0.7,1.5,1.1,2.3
				c0.1,0.2,0.6,1.3,0.1,0.3c0.2,0.4,0.3,0.8,0.5,1.2c0.6,1.6,1.2,3.3,1.7,4.9c2.6-1.5,5.3-3,7.9-4.6
				c-15.4-14.8-34.9-25.4-55.8-30.3c-21.5-5-44.3-4-65.3,2.7c-12,3.8-23.4,9.3-33.7,16.5c-2,1.4-3.2,4.2-1.7,6.4
				c1.3,2,4.3,3.2,6.5,1.7c4.4-3,9-5.8,13.8-8.3c2.3-1.2,4.7-2.3,7.1-3.3c0.3-0.1,0.7-0.3,1-0.4c-0.2,0.1-0.8,0.3,0.1,0
				c0.6-0.2,1.1-0.4,1.7-0.7c1.3-0.5,2.6-1,4-1.5c5-1.8,10.1-3.2,15.3-4.3c2.6-0.6,5.3-1,7.9-1.4c0.3,0,0.6-0.1,0.9-0.1
				c-0.2,0-0.9,0.1,0.1,0c0.6-0.1,1.2-0.1,1.8-0.2c1.4-0.2,2.8-0.3,4.2-0.4c5.3-0.4,10.6-0.4,15.9-0.1c2.6,0.2,5.1,0.4,7.7,0.7
				c-1-0.1,0.5,0.1,0.9,0.1c0.6,0.1,1.3,0.2,1.9,0.3c1.3,0.2,2.7,0.5,4,0.7c4.9,1,9.8,2.3,14.5,3.9c2.4,0.8,4.8,1.7,7.2,2.7
				c-0.8-0.3-0.1,0,0.1,0c0.3,0.1,0.5,0.2,0.8,0.3c0.6,0.3,1.2,0.5,1.8,0.8c1.2,0.6,2.5,1.1,3.7,1.7c5.1,2.5,10,5.5,14.7,8.7
				c1.1,0.8,2.2,1.6,3.3,2.4c0.7,0.5-0.9-0.7,0.2,0.2c0.3,0.2,0.6,0.4,0.8,0.7c0.6,0.4,1.1,0.9,1.7,1.3c2.2,1.9,4.4,3.8,6.5,5.8
				c3.3,3.2,9.3,0,7.9-4.6c-7.7-25.9-30.5-44.8-55.9-52.6c-14.9-4.6-30.8-5.7-46.3-4.4c-7.6,0.6-15.4,1.7-22.8,3.6
				c-7.1,1.8-14.2,4.8-19.2,10.3c-5.8,6.4-9.2,14.8-12.3,22.7c-3.2,8.2-5.8,16.7-7.6,25.4c-0.5,2.4,0.7,5.2,3.3,5.8
				C291.6,130.7,294.5,129.5,295,126.9L295,126.9z"/>
		</g>
	</g>
	<g>
		<g>
			<path class="st0" d="M303,189.1c2.5,0,4.8-2.2,4.7-4.7c-0.1-2.5-2.1-4.7-4.7-4.7c-2.5,0-4.8,2.2-4.7,4.7
				C298.4,187,300.3,189.1,303,189.1L303,189.1z"/>
		</g>
	</g>
	<g>
		<g>
			<path class="st0" d="M306.5,188c0.5-0.4,0.9-0.7,1.4-1.1c0.3-0.2,0.6-0.5,0.9-0.7c0.1-0.1,0.8-0.6,0.4-0.3s0.3-0.2,0.4-0.3
				c0.2-0.2,0.5-0.4,0.7-0.5c0.6-0.4,1.2-0.9,1.8-1.3c2-1.5,4.1-2.8,6.2-4.2c4.3-2.7,8.8-5.1,13.4-7.3c1.1-0.5,2.1-1,3.2-1.4
				c-0.7,0.3,0,0,0.1,0c0.3-0.1,0.7-0.3,1-0.4c0.6-0.2,1.2-0.5,1.8-0.7c2.4-0.9,4.8-1.7,7.3-2.4c2.4-0.7,4.8-1.3,7.2-1.8
				c1.2-0.3,2.4-0.5,3.7-0.7c0.6-0.1,1.2-0.2,1.7-0.3c0.3,0,0.6-0.1,0.9-0.1c1.4-0.2-1,0.1,0.5-0.1c4.9-0.6,9.7-0.8,14.6-0.5
				c1.1,0.1,2.2,0.1,3.3,0.2c0.5,0.1,1,0.1,1.6,0.2c0.3,0,0.7,0.1,1,0.1c-0.7-0.1-0.4-0.1,0.1,0c2.2,0.3,4.4,0.7,6.5,1.2
				c2.2,0.5,4.4,1.1,6.6,1.9c1,0.3,2,0.7,3,1c0.5,0.2,1,0.4,1.5,0.6c0.2,0.1,0.5,0.2,0.7,0.3c-1-0.4,0.2,0.1,0.3,0.1
				c4.1,1.8,8.1,3.9,11.8,6.4c1,0.7,2,1.4,3,2.1c0.7,0.5,0.1,0.1,0,0c0.3,0.2,0.6,0.5,0.9,0.7c0.5,0.4,1,0.8,1.5,1.2
				c1.9,1.6,3.6,3.3,5.3,5c0.8,0.9,1.6,1.8,2.4,2.7c0.2,0.2,0.4,0.5,0.6,0.7c0.6,0.7-0.2-0.3,0.1,0.1c0.3,0.5,0.7,0.9,1,1.4
				c1.5,2.1,2.9,4.3,4.1,6.5c0.6-2.1,1.1-4.3,1.7-6.4c-4.3,1.9-7.8,3.4-11.8,5c-4.2,1.7-8.4,3.3-12.7,4.8
				c-8.6,2.9-17.3,5.2-26.3,6.6c-0.6,0.1,0,0,0.1,0c-0.2,0-0.5,0.1-0.7,0.1c-0.6,0.1-1.1,0.1-1.7,0.2c-1.1,0.1-2.2,0.2-3.3,0.3
				c-2.2,0.2-4.4,0.2-6.7,0.3c-2.2,0-4.4-0.1-6.6-0.2c-1-0.1-2-0.2-3.1-0.3c-0.2,0-0.5-0.1-0.7-0.1c0,0-0.8-0.1-0.3,0
				s-0.4-0.1-0.5-0.1c-0.3,0-0.6-0.1-0.9-0.1c-4.3-0.7-8.5-1.7-12.6-3.2c-0.5-0.2-1-0.4-1.6-0.6c-0.2-0.1-1.5-0.6-0.8-0.3
				c-1-0.4-2-0.9-2.9-1.3c-1.9-0.9-3.7-1.9-5.5-2.9c-4.1-2.4-8-5.1-11.9-8c-0.2-0.1-0.4-0.3-0.6-0.4c0.6,0.4-0.2-0.2-0.3-0.2
				c-0.5-0.4-1-0.8-1.5-1.1c-0.9-0.7-1.8-1.4-2.7-2.2c-1.9-1.5-3.8-3.1-5.7-4.7c-1.9-1.6-4.9-2-6.7,0c-1.6,1.7-2,4.9,0,6.6
				c7,5.7,14,11.5,21.6,16.3c7.8,4.9,16.3,8.6,25.3,10.4c18.5,3.8,37.7,1,55.5-4.8c10.3-3.3,20.4-7.6,30.3-11.9
				c2.4-1,2.8-4.4,1.7-6.4c-9.2-17-26.2-28.9-44.8-34.2c-20.3-5.8-42-3.1-61.3,4.9c-11.3,4.7-21.8,11.2-31.3,19
				c-1.9,1.6-1.8,5,0,6.6C301.9,189.8,304.4,189.6,306.5,188L306.5,188z"/>
		</g>
	</g>
	<g>
		<g>
			<path class="st0" d="M304.6,189.1c2.5,0,4.8-2.2,4.7-4.7c-0.1-2.5-2.1-4.7-4.7-4.7c-2.5,0-4.8,2.2-4.7,4.7
				C300,187,302,189.1,304.6,189.1L304.6,189.1z"/>
		</g>
	</g>
	<g>
		<g>
			<path class="st0" d="M338.8,165.4c2.4,9.4,9.1,17.9,18.1,21.7c10.2,4.3,22,3,30.6-4.2c4.3-3.6,7.3-8.6,8.8-13.9
				c0.6-2.4-0.8-5.2-3.3-5.8s-5.1,0.7-5.8,3.3c-0.2,0.9-0.5,1.7-0.9,2.6c0.4-1-0.2,0.4-0.3,0.7c-0.2,0.5-0.5,0.9-0.7,1.4
				c-0.5,0.8-1,1.5-1.5,2.3c0.6-0.8-0.4,0.4-0.5,0.6c-0.3,0.4-0.7,0.8-1.1,1.1c-0.3,0.3-0.7,0.6-1,0.9c-0.2,0.2-1.1,0.9-0.4,0.4
				c-0.9,0.6-1.7,1.2-2.6,1.7c-0.4,0.2-0.9,0.4-1.3,0.7c-0.6,0.4,0.6-0.2-0.1,0c-0.2,0.1-0.4,0.2-0.6,0.2c-1.1,0.4-2.2,0.7-3.3,0.9
				c-0.3,0.1-0.6,0.1-0.8,0.2c-0.1,0-0.8,0.1-0.2,0c0.6-0.1-0.3,0-0.4,0c-0.2,0-0.4,0-0.6,0.1c-1.1,0.1-2.3,0.1-3.4,0
				c-0.3,0-0.6-0.1-0.9-0.1c-0.1,0-0.8-0.1-0.2,0c0.6,0.1-0.3-0.1-0.4-0.1c-0.2,0-0.4-0.1-0.6-0.1c-1.1-0.2-2.2-0.5-3.3-0.9
				c-0.3-0.1-0.5-0.2-0.8-0.3c0.1,0,0.6,0.3,0.1,0.1s-0.9-0.4-1.4-0.6c-0.9-0.5-1.8-1-2.7-1.6c-0.2-0.1-0.4-0.3-0.6-0.4
				c-0.1,0-0.6-0.4-0.1-0.1c0.4,0.3-0.6-0.5-0.7-0.6c-0.8-0.7-1.5-1.4-2.2-2.2c-0.4-0.4-0.7-0.8-1-1.2c-0.6-0.7-0.1-0.1,0,0
				c-0.2-0.3-0.4-0.5-0.6-0.8c-0.6-0.9-1.2-1.9-1.7-2.8c-0.3-0.5-0.5-0.9-0.7-1.4c-0.1-0.2-0.2-0.5-0.3-0.7c0.2,0.4,0.2,0.5,0,0
				c-0.4-1.1-0.8-2.2-1.1-3.4c-0.6-2.4-3.4-4-5.8-3.3C339.6,160.5,338.1,162.9,338.8,165.4L338.8,165.4z"/>
		</g>
	</g>
	<g>
		<g>
			<path class="st0" d="M400.5,172.1c0.4-0.9-0.2,0.4-0.2,0.5c-0.2,0.4-0.3,0.8-0.5,1.2c-0.4,0.8-0.7,1.6-1.1,2.3
				c-0.8,1.5-1.6,3.1-2.5,4.5c-0.4,0.7-0.9,1.3-1.3,2c-0.2,0.3-0.4,0.6-0.6,0.9c0.6-0.8-0.3,0.3-0.3,0.4c-1.1,1.3-2.3,2.5-3.6,3.6
				c-0.1,0.1-1.2,0.9-0.3,0.3c-0.3,0.2-0.7,0.5-1,0.7c-0.7,0.4-1.3,0.9-2,1.2c-0.6,0.3-1.2,0.6-1.8,0.9c-0.1,0.1-1.4,0.6-0.3,0.2
				c-0.5,0.2-1,0.4-1.5,0.6c-1.4,0.5-2.8,0.8-4.2,1.1c-0.4,0.1-0.8,0.2-1.2,0.2c-0.2,0-1.5,0.2-0.3,0.1c-0.8,0.1-1.6,0.2-2.4,0.2
				c-3.3,0.2-6.6,0.1-9.8-0.3c-1.3-0.1,0.6,0.1-0.2,0c-0.3-0.1-0.7-0.1-1-0.2c-0.8-0.1-1.6-0.3-2.4-0.4c-1.6-0.3-3.2-0.7-4.8-1.1
				c-3-0.8-5.9-1.8-8.8-2.9c-0.2-0.1-0.8-0.4,0.1,0c-0.4-0.2-0.7-0.3-1.1-0.5c-0.7-0.3-1.4-0.6-2.1-1c-1.4-0.7-2.7-1.4-4-2.2
				c-0.7-0.5-1.5-1-2.2-1.5c-0.2-0.1-0.4-0.3-0.6-0.4c1,0.7-0.3-0.3-0.5-0.4c-1.2-1-2.4-2.1-3.4-3.3c-0.2-0.3-0.5-0.6-0.7-0.8
				c-0.3-0.4-0.3-0.4,0.1,0.1c-0.1-0.2-0.3-0.4-0.4-0.6c-0.4-0.6-0.8-1.2-1.2-1.8c-0.4-0.7-0.8-1.5-1.2-2.3c0.5,1.1,0-0.1-0.1-0.2
				c-0.2-0.5-0.3-0.9-0.5-1.4c-0.7-2.3-3.4-4.1-5.8-3.3s-4.1,3.2-3.3,5.8c4.1,13.7,17.8,21.3,30.9,25.1c13.4,4,30,5.4,42.1-3.1
				c7.6-5.4,11.9-13.3,15.4-21.6c1-2.3-1-5.2-3.3-5.8C403.6,168.2,401.5,169.6,400.5,172.1L400.5,172.1z"/>
		</g>
	</g>
	<g>
		<g>
			<path class="st0" d="M301.3,189.4c5.3,5.1,11.4,9.3,18.1,12.3c1.2,0.5,2.3,0.8,3.6,0.5c1.1-0.3,2.3-1.1,2.8-2.2
				c1.1-2.1,0.7-5.3-1.7-6.4c-3.1-1.4-6.1-3.1-9-5c-0.7-0.5-1.4-1-2.1-1.4c-0.2-0.1-0.3-0.2-0.5-0.4c-0.5-0.4,0.1,0.1,0.3,0.2
				c-0.3-0.3-0.7-0.6-1.1-0.8c-1.3-1.1-2.6-2.2-3.9-3.4c-1.8-1.7-4.9-1.9-6.7,0C299.6,184.6,299.4,187.6,301.3,189.4L301.3,189.4z"
				/>
		</g>
	</g>
	<g>
		<g>
			<path class="st0" d="M349.5,169.4c11.1,0.6,22.2,0.8,33.3,0.5c2.5-0.1,4.8-2.1,4.7-4.7c-0.1-2.5-2.1-4.8-4.7-4.7
				c-11.1,0.3-22.2,0.2-33.3-0.5c-2.5-0.1-4.8,2.3-4.7,4.7C344.9,167.4,346.9,169.2,349.5,169.4L349.5,169.4z"/>
		</g>
	</g>
	<g>
		<g>
			<path class="st0" d="M379.3,165.2c0.1-1.1-0.1,0.2-0.2,0.3c0.3-0.6,0-0.2-0.2,0.1c-0.1,0.2-0.2,0.3-0.3,0.5
				c0.3-0.3,0.3-0.4,0.1-0.1c-0.3,0.2-0.5,0.5-0.7,0.8c-0.5,0.5-1.1,1-1.7,1.5c-0.4,0.3,0.5-0.3-0.2,0.2c-0.3,0.2-0.7,0.5-1,0.7
				c-0.7,0.4-1.3,0.8-2,1.2c-0.3,0.2-0.6,0.3-0.9,0.5c-0.1,0.1-1.4,0.5-0.4,0.2c-0.7,0.2-1.4,0.5-2.2,0.7c-0.3,0.1-0.7,0.1-1,0.2
				c-1.2,0.3,0.9,0-0.3,0c-0.7,0-1.3,0-2,0c1.1,0,0,0-0.3-0.1c-0.4-0.1-0.8-0.2-1.1-0.3c-0.8-0.3,0.2,0.2-0.2-0.1
				c-0.3-0.2-0.6-0.3-0.9-0.5s-0.7-0.4-1-0.7c0.7,0.5,0,0-0.3-0.3c-2.4-2.1-4.6-4.4-7.5-5.9c-1.2,2.8-2.4,5.7-3.6,8.5
				c6.3,1.5,12.8,2.2,19.3,2.1c2.5-0.1,4.8-2.1,4.7-4.7c-0.1-2.5-2.1-4.7-4.7-4.7c-2.9,0.1-5.9,0-8.8-0.3c-0.3,0-0.7-0.1-1-0.1
				c-0.1,0-1-0.1-0.6-0.1c0.4,0.1-0.9-0.1-0.9-0.1c-0.3-0.1-0.7-0.1-1-0.2c-1.5-0.3-3-0.6-4.4-0.9c-2.3-0.6-4.7,0.5-5.6,2.7
				c-0.9,2-0.2,4.8,1.9,5.8c0.4,0.2,0.8,0.4,1.2,0.7c0.2,0.1,1.3,1,0.5,0.3c0.6,0.5,1.2,1,1.8,1.6c1.5,1.4,2.9,2.7,4.6,3.8
				c3.6,2.5,8.1,3.1,12.3,2.4c3.8-0.6,7.5-2.5,10.5-4.8c1.7-1.2,3.3-2.5,4.6-4.1c1.7-2.1,2.7-4.2,3-7c0.3-2.4-2.4-4.8-4.7-4.7
				C381.2,160.7,379.7,162.6,379.3,165.2L379.3,165.2z"/>
		</g>
	</g>
	<g>
		<g>
			<path class="st0" d="M302,155.3c-2.6,8.9,1.4,18.7,9.2,23.8c2.1,1.3,5.3,0.5,6.5-1.7c1.2-2.3,0.5-5-1.7-6.4
				c-0.4-0.2-1.4-1.1-0.3-0.2c-0.3-0.3-0.6-0.5-0.9-0.8c-0.6-0.6-1.1-1.2-1.7-1.8c0.2,0.2,0.6,0.8,0.2,0.2c-0.1-0.1-0.2-0.3-0.3-0.4
				c-0.2-0.4-0.5-0.7-0.7-1.1c-0.2-0.3-0.4-0.7-0.5-1c-0.1-0.2-0.4-0.9-0.1-0.2c0.3,0.8,0-0.1-0.1-0.2c-0.3-0.7-0.5-1.5-0.7-2.3
				c0-0.2-0.1-0.4-0.1-0.6c-0.1-0.8,0,0,0,0.3c0-0.4-0.1-0.8-0.1-1.2c0-0.8,0-1.6,0.1-2.5c0.1-0.8-0.2,0.9-0.1,0.3
				c0-0.2,0.1-0.4,0.1-0.6c0.1-0.4,0.2-0.8,0.3-1.3c0.7-2.3-0.8-5.2-3.3-5.8C305.3,151.5,302.8,152.8,302,155.3L302,155.3z"/>
		</g>
	</g>
	<g>
		<g>
			<path class="st0" d="M323.6,144.4c0.3,8,3.6,15.7,9.4,21.4c1.7,1.7,5,1.9,6.7,0s1.9-4.8,0-6.6c-0.6-0.6-1.1-1.1-1.6-1.7
				c-0.1-0.1-0.3-0.3-0.4-0.4c-0.6-0.8,0.4,0.6,0.1,0.1c-0.2-0.3-0.5-0.6-0.7-1c-0.9-1.3-1.7-2.8-2.4-4.2c-0.3-0.6,0.1,0.1,0.1,0.3
				c-0.1-0.2-0.1-0.4-0.2-0.5c-0.1-0.4-0.3-0.7-0.4-1.1c-0.3-0.7-0.5-1.5-0.7-2.2c-0.1-0.4-0.2-0.8-0.3-1.1c0-0.2-0.1-0.5-0.1-0.7
				s-0.1-0.9,0-0.1c0.1,0.8,0,0.1,0-0.1c0-0.2,0-0.4-0.1-0.6c0-0.4-0.1-0.9-0.1-1.3c-0.1-2.4-2.1-4.8-4.7-4.7
				C325.8,139.8,323.5,141.8,323.6,144.4L323.6,144.4z"/>
		</g>
	</g>
	<g>
		<g>
			<path class="st0" d="M345.4,127.4c0,0.9,0,1.8,0,2.7c0,0.6,0.1,1.2,0.4,1.8c0.2,0.6,0.5,1.1,1,1.5c0.4,0.5,0.9,0.8,1.5,1
				c0.6,0.3,1.2,0.4,1.8,0.4c0.4-0.1,0.8-0.1,1.3-0.2c0.8-0.2,1.5-0.6,2.1-1.2c0.2-0.3,0.5-0.6,0.7-0.9c0.4-0.7,0.6-1.5,0.6-2.4
				s0-1.8,0-2.7c0-0.6-0.1-1.2-0.4-1.8c-0.2-0.6-0.5-1.1-1-1.5c-0.4-0.5-0.9-0.8-1.5-1c-0.6-0.3-1.2-0.4-1.8-0.4
				c-0.4,0.1-0.8,0.1-1.3,0.2c-0.8,0.2-1.5,0.6-2.1,1.2c-0.2,0.3-0.5,0.6-0.7,0.9C345.6,125.8,345.4,126.6,345.4,127.4L345.4,127.4z
				"/>
		</g>
	</g>
	<g>
		<g>
			<path class="st0" d="M345.7,135.2c1.1,7.7,3.6,15,7.1,21.9c1.1,2.2,4.4,3,6.5,1.7c2.3-1.5,2.9-4,1.7-6.4
				c-0.4-0.8-0.8-1.6-1.1-2.4c-0.1-0.2-0.8-1.7-0.3-0.6c-0.2-0.3-0.3-0.7-0.4-1.1c-0.7-1.7-1.3-3.4-1.8-5.2
				c-1.1-3.4-1.9-6.9-2.4-10.5c-0.2-1.1-1.3-2.3-2.2-2.8c-1-0.6-2.5-0.8-3.6-0.5C346.3,130.3,345.3,132.6,345.7,135.2L345.7,135.2z"
				/>
		</g>
	</g>
	<g>
		<g>
			<path class="st0" d="M375.6,131.5c2.5,0,4.8-2.2,4.7-4.7c-0.1-2.5-2.1-4.7-4.7-4.7c-2.5,0-4.8,2.2-4.7,4.7
				C371,129.4,372.9,131.5,375.6,131.5L375.6,131.5z"/>
		</g>
	</g>
	<g>
		<g>
			<path class="st0" d="M370.4,128.3c-2.1,7.4-4,14.9-5.4,22.5c-0.5,2.4,0.7,5.2,3.3,5.8c2.3,0.5,5.3-0.7,5.8-3.3
				c1.5-7.6,3.3-15.1,5.4-22.5c0.7-2.3-0.8-5.2-3.3-5.8C373.7,124.5,371.1,125.8,370.4,128.3L370.4,128.3z"/>
		</g>
	</g>
	<g>
		<g>
			<path class="st0" d="M395.2,132.6c-1.1,1.7-2.2,3.3-3.3,5c-0.6,0.8-1.2,1.6-1.8,2.4c-0.3,0.4-0.6,0.8-1,1.3
				c-0.1,0.2-0.3,0.4-0.4,0.6c0.4-0.4,0.3-0.4,0,0c-2.5,3.2-5.2,6.2-8.1,9.1c-1.7,1.8-1.9,4.9,0,6.6c1.9,1.7,4.9,1.9,6.7,0
				c6-6.2,11.4-13,16-20.3c1.3-2.1,0.5-5.3-1.7-6.4C399.3,129.7,396.6,130.4,395.2,132.6L395.2,132.6z"/>
		</g>
	</g>
	<g>
		<g>
			<path class="st0" d="M413,143.1c-4.7,6.6-9.5,13.2-14.3,19.8c-1.4,2-0.4,5.3,1.7,6.4c2.4,1.3,4.9,0.5,6.5-1.7
				c4.7-6.6,9.5-13.2,14.3-19.8c1.4-2,0.4-5.3-1.7-6.4C417,140.1,414.5,140.9,413,143.1L413,143.1z"/>
		</g>
	</g>
	<g>
		<g>
			<path class="st0" d="M433,155.1c-6.7,4.5-12.9,10-18,16.2c-0.8,1-1.4,2-1.4,3.3c0,1.1,0.5,2.5,1.4,3.3c1.7,1.6,5,2,6.7,0
				c2.4-2.9,5-5.7,7.8-8.3c1.4-1.3,2.8-2.5,4.3-3.6c0.2-0.2,0.4-0.3,0.6-0.5c0.5-0.4-0.1,0.1-0.3,0.2c0.4-0.3,0.8-0.6,1.2-0.9
				c0.8-0.6,1.6-1.1,2.4-1.7c2-1.4,3.1-4.2,1.7-6.4C438.2,154.8,435.2,153.6,433,155.1L433,155.1z"/>
		</g>
	</g>
	<g>
		<g>
			<path class="st0" d="M66.4,197.5c13.1,16.4,35.6,19.4,55.2,20c20.7,0.7,42.3-0.2,60.9-10c4.2-2.2,8.1-4.9,11.7-8
				c1.7-1.5,3.4-3,4.9-4.8c2.4-2.9,3.1-6.6,0.8-9.8c-1.5-2.1-3.4-3.9-5.2-5.7c-1.6-1.6-3.3-3.2-5-4.8c-3.6-3.3-7.5-6.3-11.5-9.1
				c-16.3-11.2-36.2-16.9-56-13.6c-9.9,1.7-19,6.1-26.9,12.2c-8.4,6.4-16.1,13.7-23.5,21c-1.9,1.9-3.8,3.8-5.6,5.7
				c-1.7,1.8-1.9,4.9,0,6.6c1.8,1.7,4.9,1.9,6.7,0c7-7.2,14.2-14.2,21.8-20.7c1.7-1.5,3.5-3,5.3-4.4c0.2-0.1,0.4-0.3,0.5-0.4
				c-0.6,0.4,0.1,0,0.1-0.1c0.5-0.4,1-0.7,1.5-1.1c0.9-0.7,1.9-1.3,2.8-2c1.9-1.3,3.9-2.4,6-3.4c0.5-0.2,1-0.5,1.4-0.7
				c0.2-0.1,1.7-0.7,0.9-0.4c1-0.4,2.1-0.8,3.2-1.2c2.2-0.7,4.4-1.3,6.7-1.8c1-0.2,2.1-0.4,3.1-0.5c-0.9,0.1,0.5-0.1,0.7-0.1
				c0.7-0.1,1.3-0.1,2-0.2c2.2-0.2,4.5-0.2,6.8-0.1c1.1,0,2.1,0.1,3.2,0.2c0.6,0.1,1.2,0.1,1.8,0.2c0.2,0,0.5,0.1,0.7,0.1
				c0.5,0.1-0.6-0.1,0.3,0c4.5,0.7,8.9,1.7,13.2,3.2c1,0.4,2,0.7,3,1.1c0.2,0.1,0.4,0.2,0.6,0.2c-0.8-0.3-0.1,0,0.1,0
				c0.5,0.2,1.1,0.5,1.6,0.7c2,0.9,3.9,1.9,5.8,2.9c3.9,2.1,7.5,4.6,11.1,7.2c0.4,0.3,0,0-0.1-0.1c0.2,0.2,0.5,0.4,0.7,0.5
				c0.4,0.3,0.8,0.6,1.2,0.9c0.9,0.7,1.8,1.5,2.7,2.2c1.6,1.4,3.2,2.9,4.8,4.4s3.1,3.1,4.5,4.6c0.3,0.4,0.7,0.7,1,1.1
				c0.7,0.8,0.2,0.1,0.1,0.1c0.3,0.2,0.1,0.7,0.1,0c0-0.3,0.1-1.3,0-1.5c0-0.1,0.1-0.1,0.1-0.2c-0.3,0.4-0.3,0.5-0.1,0.2
				c0.3-0.4-0.1,0.1-0.2,0.2c-0.3,0.3-0.6,0.6-0.9,0.9c-1.5,1.5-3.1,2.9-4.7,4.3c-0.2,0.1-0.3,0.3-0.5,0.4c-0.6,0.5,0.5-0.4-0.1,0
				c-0.4,0.3-0.8,0.6-1.2,0.9c-0.9,0.7-1.9,1.3-2.8,1.9c-1.8,1.1-3.7,2.2-5.6,3.1c-0.9,0.4-1.8,0.9-2.7,1.3
				c-0.3,0.1-0.5,0.2-0.8,0.3c0.2-0.1,0.8-0.3-0.1,0c-0.5,0.2-1.1,0.4-1.6,0.6c-4.1,1.5-8.4,2.7-12.7,3.6c-5.1,1-8.9,1.5-14.3,1.8
				c-5.1,0.3-10.3,0.4-15.5,0.3c-5-0.1-10.1-0.2-15.1-0.6c-1.3-0.1-2.5-0.2-3.8-0.3c-0.6-0.1-1.2-0.1-1.7-0.2
				c-0.3,0-0.5-0.1-0.7-0.1c0,0-1.3-0.2-0.9-0.1c0.5,0.1-0.5-0.1-0.6-0.1c-0.3,0-0.5-0.1-0.7-0.1c-0.7-0.1-1.3-0.2-2-0.3
				c-1.3-0.2-2.6-0.5-3.9-0.8c-2.3-0.5-4.5-1.1-6.7-1.9c-0.9-0.3-1.8-0.7-2.8-1c-0.2-0.1-0.8-0.3,0,0c-0.2-0.1-0.4-0.2-0.6-0.2
				c-0.6-0.2-1.2-0.5-1.7-0.8c-1.9-0.9-3.7-1.9-5.5-3.1c-0.8-0.5-1.6-1.1-2.4-1.7c0.7,0.6-0.5-0.4-0.7-0.6c-0.4-0.4-0.9-0.7-1.3-1.1
				c-1.6-1.4-3-2.9-4.3-4.6c-1.5-1.9-5.1-1.7-6.7,0C64.5,193,64.7,195.5,66.4,197.5L66.4,197.5z"/>
		</g>
	</g>
	<g>
		<g>
			<path class="st0" d="M92.4,180.9c2.5,0,4.8-2.2,4.7-4.7c-0.1-2.5-2.1-4.7-4.7-4.7c-2.5,0-4.8,2.2-4.7,4.7
				C87.7,178.7,89.7,180.9,92.4,180.9L92.4,180.9z"/>
		</g>
	</g>
	<g>
		<g>
			<path class="st0" d="M87.8,177.5c0.2,0.9,0.4,1.8,0.6,2.7c0.1,0.6,0.4,1.1,0.9,1.6c0.3,0.5,0.8,0.9,1.3,1.2s1.1,0.5,1.8,0.6
				c0.6,0.1,1.3,0.1,1.9-0.1c0.4-0.2,0.8-0.3,1.1-0.5c0.7-0.4,1.3-1,1.7-1.7c0.2-0.4,0.3-0.7,0.5-1.1c0.2-0.8,0.2-1.7,0-2.5
				c-0.2-0.9-0.4-1.8-0.6-2.7c-0.1-0.6-0.4-1.1-0.9-1.6c-0.3-0.5-0.8-0.9-1.3-1.2s-1.1-0.5-1.8-0.6c-0.6-0.1-1.3-0.1-1.9,0.1
				c-0.4,0.2-0.8,0.3-1.1,0.5c-0.7,0.4-1.3,1-1.7,1.7c-0.2,0.4-0.3,0.7-0.5,1.1C87.6,175.8,87.6,176.6,87.8,177.5L87.8,177.5z"/>
		</g>
	</g>
	<g>
		<g>
			<path class="st0" d="M89.3,180.7c2.5,6.5,7.1,11.7,13.1,15.5c6.2,3.9,13.4,5.8,20.6,6.7c3.7,0.5,7.4,0.7,11.2,0.8
				c3.7,0.1,7.5,0.3,11.3,0c4.2-0.3,8.1-1.2,11.8-3.2c3.1-1.6,5.9-3.9,8.2-6.5c5.7-6.3,8.8-14.2,11.7-22c0.9-2.3-1-5.2-3.3-5.8
				c-2.7-0.6-4.9,0.8-5.8,3.3c-0.6,1.5-1.2,3-1.8,4.6c-0.1,0.4-0.3,0.7-0.4,1.1c0,0-0.6,1.4-0.3,0.6c-0.3,0.8-0.7,1.6-1.1,2.3
				c-1.4,2.9-3,5.8-4.9,8.3c0.5-0.7,0.1-0.1,0,0c-0.3,0.3-0.5,0.6-0.8,0.9c-0.5,0.5-0.9,1-1.4,1.5s-1,0.9-1.5,1.4c0,0-1,0.8-0.5,0.4
				c0.4-0.3-0.7,0.5-0.9,0.6c-0.6,0.4-1.2,0.7-1.8,1.1c-0.4,0.2-0.7,0.4-1.1,0.6c-0.2,0.1-0.8,0.4,0,0c-1.6,0.6-3.3,1.1-4.9,1.3
				c0.9-0.1-0.7,0.1-0.7,0.1c-0.3,0-0.7,0.1-1,0.1c-0.8,0.1-1.6,0.1-2.4,0.1c-1.8,0-3.6,0-5.4-0.1c-3.6-0.1-7.2-0.2-10.7-0.5
				c-0.8-0.1-1.6-0.2-2.4-0.3c-0.1,0-0.9-0.1-0.2,0c-0.5-0.1-1-0.1-1.4-0.2c-1.8-0.3-3.5-0.6-5.2-1.1c-1.5-0.4-2.9-0.8-4.4-1.4
				c0,0-1.2-0.5-0.5-0.2s-0.5-0.2-0.5-0.2c-0.7-0.3-1.4-0.7-2.1-1c-1.4-0.7-2.7-1.6-4-2.5c-0.7-0.5-0.1-0.1,0,0
				c-0.4-0.3-0.8-0.6-1.2-1c-0.6-0.5-1.2-1-1.7-1.6s-1-1.1-1.6-1.7c-0.1-0.2-0.5-0.7,0,0c-0.3-0.4-0.6-0.8-0.9-1.3
				c-0.4-0.6-0.7-1.2-1.1-1.8c-0.1-0.3-0.3-0.6-0.4-0.9c-0.1-0.2-0.2-0.5-0.3-0.7c0.2,0.5,0.2,0.5,0,0c-0.9-2.3-3.2-4.1-5.8-3.3
				C90.3,175.6,88.3,178.2,89.3,180.7L89.3,180.7z"/>
		</g>
	</g>
	<g>
		<g>
			<path class="st0" d="M103.3,169.2c5.3,9.9,13.3,19,24.5,22.2c5.6,1.6,11.9,1.7,17.4-0.5c5.3-2.1,9.4-5.9,12.6-10.5
				c3.3-4.7,5.5-10.1,7.5-15.5c0.9-2.3-1-5.2-3.3-5.8c-2.7-0.6-4.9,0.8-5.8,3.3c-0.4,1-0.8,2-1.2,3c-0.1,0.2-0.2,0.5-0.3,0.7
				c-0.1,0.1-0.4,0.9-0.1,0.3c0.2-0.6-0.1,0.2-0.1,0.3c-0.1,0.3-0.3,0.6-0.4,0.9c-0.9,2-1.9,4-3,5.8c-0.6,0.9-1.2,1.8-1.8,2.7
				c-0.1,0.1-0.6,0.7-0.2,0.3c0.4-0.5-0.1,0.1-0.2,0.3c-0.4,0.4-0.7,0.9-1.1,1.3c-0.7,0.8-1.5,1.4-2.3,2.1c-0.5,0.4,0.6-0.4,0.1-0.1
				c-0.2,0.1-0.4,0.3-0.6,0.4c-0.5,0.3-0.9,0.6-1.5,0.9c-0.2,0.1-0.4,0.2-0.7,0.4c0,0-1.2,0.5-0.5,0.3c0.5-0.2-0.3,0.1-0.4,0.1
				c-0.3,0.1-0.5,0.2-0.8,0.3c-0.5,0.2-1.1,0.3-1.6,0.4c-0.3,0.1-0.5,0.1-0.8,0.2c-0.4,0.1-0.9,0.1-0.2,0c-1.2,0.1-2.4,0.1-3.6,0.1
				c-0.3,0-0.6,0-0.8-0.1c-0.1,0-1-0.1-0.4,0s-0.3-0.1-0.4-0.1c-0.3-0.1-0.7-0.1-1-0.2c-1.2-0.3-2.3-0.6-3.5-1c-0.1,0-1-0.4-0.4-0.2
				c0.5,0.2-0.3-0.1-0.4-0.2c-0.6-0.3-1.3-0.6-1.9-1c-1-0.6-1.9-1.2-2.8-1.8c-0.1-0.1-0.8-0.6-0.4-0.3s-0.3-0.2-0.3-0.3
				c-0.5-0.4-1.1-0.9-1.6-1.4c-1-0.9-1.9-1.9-2.8-2.8c-0.5-0.5-0.9-1.1-1.4-1.6c-0.1-0.1-0.5-0.7,0-0.1c-0.2-0.3-0.4-0.6-0.6-0.8
				c-1.6-2.2-3-4.6-4.3-7c-1.2-2.2-4.4-3-6.5-1.7C102.7,164.2,102,166.9,103.3,169.2L103.3,169.2z"/>
		</g>
	</g>
	<g>
		<g>
			<path class="st0" d="M114,170.2c6.7-0.6,13.4-1.1,20.2-1.3c3.3-0.1,6.6-0.2,9.8-0.2c0.3,0,0.8,0.1,1.1,0c0.4,0,0.3,0-0.3-0.1
				c0.1,0,0.3,0.1,0.4,0.1c-0.1-0.1-1-0.7-0.6-0.3c0.2,0.2,0.5,0.5,0.7,0.7c0.5,0.5,1.1,1.1,1.6,1.6c0.1,0.1,0.9,0.9,0.9,0.9
				c-0.1,0.1-0.5-1.5-0.3-0.4c0-0.8,0-1.7,0-2.5c0.1-0.2,0.2-0.3,0.2-0.5c2.9,0.4,5.8,0.7,8.6,1.1c-0.3-0.8-0.1,0.5-0.1,0
				c0-0.2,0-1.2,0,0c0-0.5,0.2-0.2-0.1,0.1c0.7-1-0.7,0.6,0.1-0.2c-2.6-0.7-5.3-1.4-7.9-2.1c0.3,1.2,0.1-0.5,0.1,0.2
				c0,0.4,0,0.3,0.1-0.2c0,0.1-0.1,0.3-0.1,0.4c0,0.1-0.1,0.3-0.1,0.4c0.2-0.4,0.2-0.5,0-0.2s-0.4,0.6-0.6,0.9
				c-0.2,0.3-0.4,0.4-0.1,0.1c-0.2,0.3-0.5,0.5-0.7,0.8c-0.5,0.6-1.1,1.1-1.6,1.6s-1,0.9-1.6,1.4c-0.3,0.2-0.6,0.5-0.9,0.7
				c-0.3,0.2-0.2,0.2,0,0c-0.1,0.1-0.3,0.2-0.4,0.3c-1.3,0.9-2.6,1.7-3.9,2.5c-2.1,1.2-3.1,4.3-1.7,6.4c1.4,2.1,4.2,3,6.5,1.7
				c3.5-2,6.8-4.4,9.6-7.2c3.2-3.2,5.9-7.4,4.5-12.1c-1-3.3-5.4-4.6-7.9-2.1c-2.4,2.4-3.4,6-2.4,9.2c1.2,3.9,6.5,4.6,8.6,1.1
				c1.7-2.7,0.6-5.7-1.4-7.9c-1.1-1.2-2.3-2.5-3.6-3.6c-3.6-2.9-8.6-2.1-12.9-2c-8,0.2-16.1,0.6-24.1,1.4c-2.5,0.2-4.9,2-4.7,4.7
				C109.4,167.9,111.4,170.5,114,170.2L114,170.2z"/>
		</g>
	</g>
	<g>
		<g>
			<path class="st0" d="M135.5,176.7C136.7,176.2,135.8,176.6,135.5,176.7c-0.3,0.1-0.6,0.1-0.9,0.2c-1,0.2,1.1,0,0.1,0
				c-0.3,0-0.6,0-0.9,0c-0.3,0-0.6-0.1-0.9-0.1c1.1,0,0.5,0.1,0,0c-0.6-0.1-1.2-0.3-1.8-0.5c-0.9-0.3,0.9,0.5,0,0
				c-0.3-0.1-0.6-0.3-0.8-0.4c-0.5-0.3-1-0.6-1.5-0.9c-0.1-0.1-0.3-0.2-0.4-0.3c0.5,0.4,0.6,0.5,0.3,0.2c-0.2-0.2-0.5-0.4-0.7-0.6
				c-0.5-0.4-0.9-0.9-1.4-1.3c-0.9-0.9-1.6-1.8-2.4-2.7c-0.4-0.5-0.8-1-1.2-1.5c-0.3-0.3-0.3-0.3,0,0c1.3,1.4,0.8,3.1-1.3,5.1
				c-0.3,0.2-0.7,0.4-1.1,0.4c-0.5,0.1-0.5,0.1-0.1,0.1c0.8-0.1-1.2-0.2,0,0c0.4,0.1,0.7,0.1,1.1,0.2c0.7,0.1,1.5,0.2,2.2,0.3
				c1.5,0.2,3,0.4,4.5,0.6c1.3,0.2,2.5,0.2,3.6-0.5c1-0.6,1.9-1.7,2.2-2.8c0.5-2.2-0.7-5.4-3.3-5.8c-2-0.3-4-0.6-5.9-0.9
				c-2.2-0.3-4.4-0.9-6.5-0.3c-3.8,1-5.1,5.6-3.1,8.7c1,1.6,2.4,3,3.7,4.4c2.6,2.9,5.6,5.2,9.3,6.7c4,1.6,8.3,1.4,12.1-0.3
				c2.3-1,3-4.4,1.7-6.4C140.5,176.1,137.9,175.6,135.5,176.7L135.5,176.7z"/>
		</g>
	</g>
	<g>
		<g>
			<path class="st0" d="M134.3,175.8c0.7,0.2,1.5,0.4,2.2,0.6c0.6,0.2,1.3,0.2,1.9,0.1c0.6,0,1.2-0.2,1.8-0.6c0.5-0.3,1-0.7,1.3-1.2
				c0.4-0.4,0.7-1,0.9-1.6c0.1-0.4,0.1-0.8,0.2-1.2c0-0.8-0.2-1.6-0.6-2.4c-0.2-0.3-0.5-0.6-0.7-0.9c-0.6-0.6-1.3-1-2.1-1.2
				c-0.7-0.2-1.5-0.4-2.2-0.6c-0.6-0.2-1.3-0.2-1.9-0.1c-0.6,0-1.2,0.2-1.8,0.6c-0.5,0.3-1,0.7-1.3,1.2c-0.4,0.4-0.7,1-0.9,1.6
				c-0.1,0.4-0.1,0.8-0.2,1.2c0,0.8,0.2,1.6,0.6,2.4c0.2,0.3,0.5,0.6,0.7,0.9C132.8,175.2,133.5,175.6,134.3,175.8L134.3,175.8z"/>
		</g>
	</g>
	<g>
		<g>
			<path class="st0" d="M142.7,175.7C142.8,175.7,142.8,175.7,142.7,175.7c-0.2,0.2-0.5,0.4-0.9,0.7h0.1c-0.8,0.2-1.6,0.4-2.4,0.6
				c0.1,0,0.1,0,0.2,0c-0.4-0.1-0.8-0.1-1.3-0.2h0.1c-0.4-0.2-0.8-0.3-1.1-0.5c0,0,0.1,0,0.1,0.1c-0.3-0.2-0.6-0.5-1-0.7
				c0.1,0.1,0.1,0.1,0.2,0.2c-0.2-0.3-0.5-0.6-0.7-0.9c0.1,0.1,0.1,0.1,0.1,0.2c-0.2-0.4-0.3-0.7-0.5-1.1v0.1
				c-0.1-0.4-0.1-0.8-0.2-1.2v0.1c0.1-0.4,0.1-0.8,0.2-1.2c0,0.1,0,0.2-0.1,0.3c0.2-0.4,0.3-0.7,0.5-1.1c0,0.1-0.1,0.2-0.2,0.2
				c0.2-0.3,0.5-0.6,0.7-0.9c-0.1,0.1-0.1,0.1-0.2,0.2c0.3-0.2,0.6-0.5,1-0.7c-0.3,0.2-0.7,0.4-1,0.6c0.4-0.2,0.8-0.3,1.1-0.5
				c-0.7,0.3-1.4,0.5-2.1,0.6c0.4-0.1,0.8-0.1,1.3-0.2c-0.7,0.1-1.5,0.1-2.2,0c0.4,0.1,0.8,0.1,1.3,0.2c-0.3,0-0.6-0.1-0.9-0.2
				c0,3,0,6,0,9c3.6-1.4,7.2-2.9,10.8-4.3c1.2-0.5,2.2-1,2.8-2.2c0.6-1,0.8-2.5,0.5-3.6c-0.4-1.1-1.1-2.2-2.2-2.8
				c-1.1-0.6-2.5-0.9-3.6-0.5c-3.6,1.4-7.2,2.9-10.8,4.3c-0.4,0.2-0.8,0.3-1.1,0.5c-0.5,0.3-1,0.7-1.3,1.2c-0.6,0.8-1.1,1.8-1,2.8
				c0.1,2,1.4,4,3.5,4.5c3.1,0.8,6.4,0.4,9.3-1.1c2.4-1.2,3.9-4,3.1-6.6c-0.5-1.8-1.9-3.2-3.7-3.7c-0.5-0.1-1.1-0.2-1.6-0.2
				c-1.4,0-2.5,0.6-3.5,1.5c-0.9,0.7-1.4,2.2-1.4,3.3s0.5,2.5,1.4,3.3s2.1,1.4,3.3,1.4C140.7,177.1,141.7,176.6,142.7,175.7
				L142.7,175.7z"/>
		</g>
	</g>
	<g>
		<g>
			<path class="st0" d="M146.7,174.3c2.5,0,4.8-2.2,4.7-4.7s-2.1-4.7-4.7-4.7c-2.5,0-4.8,2.2-4.7,4.7
				C142.1,172.2,144,174.3,146.7,174.3L146.7,174.3z"/>
		</g>
	</g>
	<g>
		<g>
			<path class="st0" d="M70.7,169.9c2.5,0,4.8-2.2,4.7-4.7c-0.1-2.5-2.1-4.7-4.7-4.7c-2.5,0-4.8,2.2-4.7,4.7
				C66.1,167.8,68.1,169.9,70.7,169.9L70.7,169.9z"/>
		</g>
	</g>
	<g>
		<g>
			<path class="st0" d="M66.5,166.5c1.2,6.8,4.8,13.2,9.8,17.9c1.8,1.7,4.9,1.9,6.7,0c1.7-1.8,1.9-4.8,0-6.6c-0.5-0.5-1.1-1-1.6-1.6
				c-0.3-0.3-0.5-0.6-0.8-0.9c-0.1-0.1-0.2-0.3-0.3-0.4c-0.4-0.5,0.2,0.2,0.3,0.3c-1-1.1-1.8-2.5-2.5-3.8c-0.3-0.6-0.7-1.3-1-2
				c-0.3-0.6,0.1,0.3,0.2,0.4c-0.1-0.1-0.1-0.3-0.2-0.5c-0.1-0.4-0.3-0.7-0.4-1.1c-0.5-1.4-0.9-2.9-1.1-4.4
				c-0.2-1.1-1.2-2.3-2.2-2.8c-1-0.6-2.5-0.8-3.6-0.5c-1.1,0.4-2.2,1.1-2.8,2.2C66.3,164.1,66.2,165.2,66.5,166.5L66.5,166.5z"/>
		</g>
	</g>
	<g>
		<g>
			<path class="st0" d="M87.9,154.9c2.1,5,4.3,9.9,6.4,14.9c0.4,1,1.8,1.9,2.8,2.2c1.1,0.3,2.6,0.2,3.6-0.5c1-0.6,1.9-1.6,2.2-2.8
				c0.3-1.3,0.1-2.4-0.5-3.6c-2.1-5-4.3-9.9-6.4-14.9c-0.4-1-1.8-1.9-2.8-2.2c-1.1-0.3-2.6-0.2-3.6,0.5c-1,0.6-1.9,1.6-2.2,2.8
				C87.1,152.6,87.4,153.7,87.9,154.9L87.9,154.9z"/>
		</g>
	</g>
	<g>
		<g>
			<path class="st0" d="M112.3,137.6c2.5,0,4.8-2.2,4.7-4.7c-0.1-2.5-2.1-4.7-4.7-4.7c-2.5,0-4.8,2.2-4.7,4.7
				C107.7,135.4,109.7,137.6,112.3,137.6L112.3,137.6z"/>
		</g>
	</g>
	<g>
		<g>
			<path class="st0" d="M112.3,139.8c2.5,0,4.8-2.2,4.7-4.7c-0.1-2.5-2.1-4.7-4.7-4.7c-2.5,0-4.8,2.2-4.7,4.7
				C107.7,137.6,109.7,139.8,112.3,139.8L112.3,139.8z"/>
		</g>
	</g>
	<g>
		<g>
			<path class="st0" d="M109,141.2c2.6,5.7,5.3,11.4,7.9,17.2c0.5,1,1.8,1.9,2.8,2.2c1.1,0.3,2.6,0.2,3.6-0.5c2.3-1.5,2.8-4,1.7-6.4
				c-2.6-5.7-5.3-11.4-7.9-17.2c-0.5-1-1.8-1.9-2.8-2.2c-1.1-0.3-2.6-0.2-3.6,0.5C108.3,136.3,107.9,138.8,109,141.2L109,141.2z"/>
		</g>
	</g>
	<g>
		<g>
			<path class="st0" d="M133.6,128.5c0,0.9,0,1.8,0,2.7c0,0.6,0.1,1.2,0.4,1.8c0.2,0.6,0.5,1.1,1,1.5c0.4,0.5,0.9,0.8,1.5,1
				c0.6,0.3,1.2,0.4,1.8,0.4c0.4-0.1,0.8-0.1,1.3-0.2c0.8-0.2,1.5-0.6,2.1-1.2c0.2-0.3,0.5-0.6,0.7-0.9c0.4-0.7,0.6-1.5,0.6-2.4
				s0-1.8,0-2.7c0-0.6-0.1-1.2-0.4-1.8c-0.2-0.6-0.5-1.1-1-1.5c-0.4-0.5-0.9-0.8-1.5-1c-0.6-0.3-1.2-0.4-1.8-0.4
				c-0.4,0.1-0.8,0.1-1.3,0.2c-0.8,0.2-1.5,0.6-2.1,1.2c-0.2,0.3-0.5,0.6-0.7,0.9C133.9,126.9,133.6,127.7,133.6,128.5L133.6,128.5z
				"/>
		</g>
	</g>
	<g>
		<g>
			<path class="st0" d="M138.4,137c2.5,0,4.8-2.2,4.7-4.7s-2.1-4.7-4.7-4.7c-2.5,0-4.8,2.2-4.7,4.7C133.8,134.9,135.7,137,138.4,137
				L138.4,137z"/>
		</g>
	</g>
	<g>
		<g>
			<path class="st0" d="M133.7,134.5c-0.7,6.8-1.5,13.5-2.2,20.3c-0.3,2.4,2.4,4.8,4.7,4.7c2.8-0.1,4.4-2.1,4.7-4.7
				c0.7-6.8,1.5-13.5,2.2-20.3c0.3-2.4-2.4-4.8-4.7-4.7C135.6,130,134,131.9,133.7,134.5L133.7,134.5z"/>
		</g>
	</g>
	<g>
		<g>
			<path class="st0" d="M160,130.7c-0.2,0.2-0.4,0.4-0.6,0.6c-0.3,0.4-0.7,0.8-1,1.2c-0.1,0.1-0.2,0.2-0.2,0.4
				c-0.3,0.6-0.6,1.2-0.8,1.8c-0.1,0.3-0.2,0.5-0.3,0.8c-0.2,0.6-0.2,1.2-0.1,1.9c0,0.6,0.2,1.2,0.6,1.7c0.3,0.5,0.7,1,1.2,1.3
				c0.5,0.4,1,0.7,1.6,0.8c0.4,0.1,0.8,0.1,1.3,0.2c0.9,0,1.6-0.2,2.4-0.6c0.3-0.2,0.6-0.5,1-0.7c0.6-0.6,1-1.3,1.2-2.1
				c0.1-0.3,0.2-0.6,0.3-0.9c-0.2,0.4-0.3,0.7-0.5,1.1c0.2-0.4,0.4-0.8,0.7-1.2c-0.2,0.3-0.5,0.6-0.7,0.9c0.2-0.2,0.4-0.5,0.6-0.7
				c0.5-0.4,0.8-0.9,1-1.5c0.3-0.6,0.4-1.2,0.4-1.8s-0.1-1.2-0.4-1.8c-0.2-0.6-0.5-1.1-1-1.5c-0.3-0.2-0.6-0.5-1-0.7
				c-0.7-0.4-1.5-0.6-2.4-0.6c-0.4,0.1-0.8,0.1-1.3,0.2C161.2,129.7,160.5,130.1,160,130.7L160,130.7z"/>
		</g>
	</g>
	<g>
		<g>
			<path class="st0" d="M155.8,138.7c-0.9,1.5-1.8,3-2.7,4.4c-0.3,0.5-0.5,1.1-0.6,1.7c-0.1,0.6-0.1,1.2,0.1,1.9
				c0.1,0.6,0.4,1.1,0.9,1.6c0.3,0.5,0.8,0.9,1.3,1.2c0.4,0.2,0.8,0.3,1.1,0.5c0.8,0.2,1.7,0.2,2.5,0c0.4-0.2,0.8-0.3,1.1-0.5
				c0.7-0.4,1.3-1,1.7-1.7c0.9-1.5,1.8-3,2.7-4.4c0.3-0.5,0.5-1.1,0.6-1.7c0.1-0.6,0.1-1.2-0.1-1.9c-0.1-0.6-0.4-1.1-0.9-1.6
				c-0.3-0.5-0.8-0.9-1.3-1.2c-0.4-0.2-0.8-0.3-1.1-0.5c-0.8-0.2-1.7-0.2-2.5,0c-0.4,0.2-0.8,0.3-1.1,0.5
				C156.8,137.4,156.2,138,155.8,138.7L155.8,138.7z"/>
		</g>
	</g>
	<g>
		<g>
			<path class="st0" d="M150.1,160.4c6.7-6.3,12.5-13.5,17.4-21.3c1.3-2.1,0.5-5.2-1.7-6.4c-2.3-1.2-5.1-0.6-6.5,1.7
				c-1.1,1.8-2.3,3.6-3.6,5.4c-0.6,0.9-1.3,1.8-1.9,2.6c-0.1,0.2-0.3,0.4-0.4,0.6c0.4-0.4,0.3-0.4,0,0.1c-0.3,0.4-0.7,0.8-1,1.3
				c-2.7,3.3-5.7,6.5-8.9,9.5c-1.8,1.7-1.8,4.9,0,6.6C145.4,162.2,148.2,162.2,150.1,160.4L150.1,160.4z"/>
		</g>
	</g>
	<g>
		<g>
			<path class="st0" d="M169.7,165.5c0.2-0.1,0.7-0.4,0.8-0.6c-0.1,0.1-0.3,0.2-0.4,0.3c0.1-0.1,0.3-0.2,0.4-0.3
				c0.4-0.3,0.9-0.6,1.4-1c1-0.7,1.9-1.3,2.9-2c2-1.4,4-3,5.7-4.7c3.2-3.2,5.8-6.9,7.5-11c0.5-1.2,0.8-2.3,0.5-3.6
				c-0.3-1.1-1.1-2.3-2.2-2.8c-2-1.1-5.4-0.7-6.5,1.7c-0.8,1.9-1.8,3.7-2.9,5.4c-0.3,0.4-0.6,0.8-0.9,1.2c-0.4,0.6-0.2,0.2,0.1-0.1
				c-0.2,0.2-0.3,0.4-0.5,0.6c-0.7,0.8-1.4,1.6-2.1,2.3c-0.7,0.7-1.5,1.4-2.2,2c-0.2,0.2-0.4,0.3-0.6,0.5c-0.4,0.3,0.7-0.6,0,0
				c-0.5,0.3-0.9,0.6-1.4,1c-2.2,1.5-4.3,2.9-6.3,4.6c-1.9,1.6-1.8,5,0,6.6C165,167.3,167.6,167.2,169.7,165.5L169.7,165.5z"/>
		</g>
	</g>
	<g>
		<g>
			<path class="st0" d="M188.8,176.2c6-5.5,11.3-11.5,16.2-18c0.7-0.9,0.8-2.6,0.5-3.6c-0.3-1.1-1.1-2.3-2.2-2.8
				c-1.1-0.6-2.4-0.9-3.6-0.5c-1.3,0.4-2,1.1-2.8,2.2c-0.2,0.2-0.3,0.4-0.5,0.6c-0.1,0.1-0.5,0.7-0.1,0.1c0.5-0.6-0.1,0.1-0.2,0.3
				c-0.1,0.2-0.3,0.3-0.4,0.5c-0.6,0.7-1.2,1.5-1.8,2.2c-1.2,1.5-2.5,2.9-3.8,4.3c-2.6,2.8-5.2,5.5-8,8c-1.8,1.7-1.8,4.9,0,6.6
				C184,177.9,186.8,177.9,188.8,176.2L188.8,176.2z"/>
		</g>
	</g>
	<g>
		<g>
			<path class="st0" d="M223.9,267.4c6.4,8.8,16.1,14.8,27,16.2c10.8,1.4,21.3-1.9,29.7-8.7c4.4-3.5,8-8.1,10.3-13.2
				c-1.8,0.7-3.6,1.4-5.3,2.2c-0.4-0.2-0.9-0.5-1.3-0.8c-0.3-0.3-0.5-0.6-0.6-1c0,0.1,0.1,0.2,0.1,0.3c0.1,0.5,0.1,0.4,0-0.3
				c0.3,0.6,0.1,1.7,0.2,2.3c0.1,1.9,0.1,3.7-0.1,5.6c0,0.3-0.1,0.6-0.1,0.9c-0.1,1.5,0.2-0.9-0.1,0.6c-0.1,0.8-0.3,1.5-0.5,2.3
				c-0.2,0.9-0.5,1.8-0.8,2.7c-0.1,0.3-0.2,0.6-0.3,0.9c-0.1,0.3-0.2,0.6-0.3,0.9c0.2-0.5,0.2-0.5,0,0c-0.6,1.3-1.3,2.6-2.1,3.8
				c-0.1,0.2-0.3,0.4-0.5,0.6c-0.7,1.1,0.6-0.7-0.2,0.3c-0.5,0.6-1,1.2-1.6,1.7c-0.6,0.6-1.1,1.1-1.8,1.5c0.1-0.1,0.7-0.5,0,0
				c-0.3,0.2-0.7,0.4-1,0.6c-1.6,1-2.2,1.2-3.8,1.7c-1.6,0.5-3.3,0.8-4.9,1.1c-0.5,0.1-0.9,0.1-1.4,0.2c1-0.2,0.1,0-0.2,0
				c-0.9,0.1-1.8,0.2-2.6,0.3c-3,0.2-6,0.2-9-0.1c1.2,0.1-0.2,0-0.3-0.1c-0.3,0-0.5-0.1-0.8-0.1c-0.8-0.1-1.6-0.3-2.3-0.5
				c-0.6-0.2-1.3-0.4-1.9-0.6c-0.4-0.1-0.7-0.3-1.1-0.4c1,0.4-0.2-0.1-0.3-0.2c-0.7-0.3-1.4-0.7-2.1-1.1c-0.2-0.1-0.4-0.3-0.7-0.4
				c-0.1-0.1-1.2-0.9-0.3-0.2c-1.3-1-2.4-2.1-3.4-3.3c0.1,0.1,0.5,0.7,0,0c-0.3-0.4-0.6-0.9-0.9-1.3c-0.4-0.7-0.8-1.4-1.2-2
				c-0.4-0.7-0.7-1.4-1.1-2.1c-0.6-1.2,0.3,0.9-0.1-0.4c-0.2-0.4-0.3-0.9-0.5-1.3c-1.2-3.2-2-6.6-2.9-9.9c-0.6-2.4-3.4-4-5.8-3.3
				c-2.5,0.8-3.9,3.2-3.3,5.8c1.7,6.8,3.6,13.9,7.9,19.6c4.7,6.2,11.4,9.9,19.1,11c3.7,0.5,7.4,0.7,11.1,0.4c4-0.3,8.2-0.8,12.1-2
				c7.4-2.4,13.3-8,16.4-15c2-4.5,3-9.3,3.2-14.2c0.2-4.9,0.3-11.4-5.3-13.3c-1.8-0.6-4.5,0.4-5.3,2.2c-0.9,2-2,3.8-3.3,5.6
				c-0.1,0.2-0.3,0.4-0.5,0.6c0.5-0.8,0.2-0.2,0,0c-0.4,0.4-0.7,0.9-1.1,1.3c-0.7,0.8-1.5,1.6-2.3,2.3c-0.4,0.3-0.8,0.7-1.2,1
				c-0.2,0.2-0.5,0.4-0.7,0.6c-0.5,0.4,0.6-0.4,0,0c-0.9,0.6-1.8,1.3-2.7,1.8c-0.9,0.6-1.9,1.1-2.9,1.6c-0.5,0.2-0.9,0.4-1.4,0.6
				c-0.6,0.3,0.7-0.3,0.1,0c-0.3,0.1-0.6,0.2-0.9,0.3c-2.1,0.7-4.2,1.3-6.3,1.6c-1.2,0.2,0.7-0.1-0.1,0c-0.3,0-0.5,0.1-0.8,0.1
				c-0.5,0.1-1.1,0.1-1.6,0.1c-1.1,0-2.3,0-3.4,0c-0.6,0-1.2-0.1-1.8-0.2c-0.7-0.1,0.8,0.1,0.1,0c-0.3-0.1-0.5-0.1-0.8-0.1
				c-1.2-0.2-2.3-0.5-3.5-0.8c-1-0.3-2-0.6-3-1c-0.1-0.1-0.9-0.4-0.4-0.1s-0.2-0.1-0.3-0.2c-0.6-0.3-1.2-0.6-1.8-0.9
				c-1.1-0.6-2.2-1.2-3.3-1.9c-0.6-0.4-1.1-0.7-1.6-1.1c0.1,0.1,0.7,0.6,0,0c-0.3-0.2-0.5-0.4-0.8-0.6c-1-0.8-1.9-1.7-2.7-2.6
				c-0.5-0.5-0.9-1-1.3-1.5c-0.1-0.1-0.6-0.7,0,0c-0.2-0.3-0.5-0.6-0.7-1c-1.4-2-4.2-3.1-6.5-1.7
				C223.6,262.3,222.3,265.3,223.9,267.4L223.9,267.4z"/>
		</g>
	</g>
	<g>
		<g>
			<path class="st0" d="M205.2,380.9c6.5,3.6,14.1,2.3,20.5-0.9c2.9-1.4,5.5-3.3,8.2-5c1.3-0.9,2.7-1.7,4.1-2.5
				c0.7-0.4,1.5-0.8,2.2-1.1c-0.2,0.1-0.8,0.3,0.1-0.1c0.5-0.2,1-0.4,1.5-0.5c1.5-0.5,3-0.9,4.5-1.1c0.3-0.1,0.6-0.1,0.9-0.1
				c1.4-0.2-0.9,0.1,0.5-0.1c0.9-0.1,1.8-0.2,2.7-0.2c1.5-0.1,3,0,4.5,0.1c0.8,0.1,1.5,0.1,2.3,0.2c0.1,0,1.6,0.2,0.6,0.1
				c0.5,0.1,0.9,0.1,1.4,0.2c6.6,1.1,12.9,3.1,19.2,5.4c1.6,0.6,3.2,1.2,4.7,1.8c0.2,0.1,0.8,0.4,0,0c0.5,0.2,1,0.4,1.5,0.7
				c0.8,0.3,1.5,0.7,2.2,1.1s1.4,0.8,2.1,1.2c0.2,0.1,0.5,0.3,0.7,0.4c0.1,0.1,1.3,0.9,0.8,0.6c-0.5-0.4,0.5,0.4,0.5,0.4
				c0.4,0.3,0.7,0.6,1.1,0.9c0.2,0.2,0.5,0.5,0.7,0.7c0.1,0.1,1.2,1.4,0.6,0.6c1.5,1.9,4.1,3.2,6.5,1.7c1.9-1.2,3.3-4.3,1.7-6.4
				c-4.3-5.6-10.2-8.7-16.7-11.3c-6.1-2.4-12.3-4.5-18.6-6c-7-1.6-14.1-2.3-21.2-1.2c-6.9,1-12.7,4.4-18.5,8.2c-1.5,1-3.1,2-4.7,2.8
				c-0.4,0.2-0.8,0.4-1.2,0.6c-0.2,0.1-1.3,0.6-0.4,0.2c-0.8,0.3-1.6,0.6-2.4,0.8c-0.8,0.2-1.7,0.4-2.5,0.6c1.1-0.2-0.3,0-0.4,0
				c-0.4,0-0.8,0-1.3,0c-0.4,0-0.8,0-1.2-0.1c1.1,0.1-0.1-0.1-0.4-0.1c-0.4-0.1-0.8-0.2-1.2-0.4c1,0.3-0.5-0.3-0.7-0.4
				c-2.2-1.2-5.3-0.6-6.5,1.7C202.4,376.8,202.9,379.7,205.2,380.9L205.2,380.9z"/>
		</g>
	</g>
	<g>
		<g>
			<path class="st0" d="M295.9,387C296.2,387.2,296.9,387.8,295.9,387c0.8,0.6-0.3-0.7,0-0.2s-0.2-1.1,0-0.1
				C295.9,386.8,295.9,386.9,295.9,387C296,387.4,296,387.4,295.9,387c0-0.1,0-0.2,0-0.3c0,0.2,0,0.4,0,0.6c0-0.2,0.1-0.4,0.1-0.6
				c0,0.2-0.1,0.4-0.2,0.6C295.9,387.3,295.9,387.2,295.9,387C296.1,386.7,296.1,386.7,295.9,387c-0.2,0.4-0.2,0.4,0.2,0
				c-0.1,0.1-0.2,0.3-0.4,0.4c-0.3,0.2-0.9,0.5-0.1,0.1c-0.3,0.2-0.6,0.4-1,0.5c0.2-0.1,0.9-0.3,0.1-0.1c-0.4,0.1-0.7,0.2-1.1,0.3
				c-0.3,0.1-0.9,0,0.1,0c-0.4,0-0.7,0.1-1.1,0.1s-1.6-0.3-1.8-0.1c0.2-0.2,1,0.2,0.4,0c-0.3-0.1-0.6-0.1-0.9-0.2
				c-0.5-0.1-1-0.2-1.5-0.4c-0.5-0.2-1-0.3-1.4-0.5c-1-0.4,0.7,0.4,0.1,0.1c-0.3-0.2-0.7-0.3-1-0.5c-2-1-3.9-2.2-5.7-3.5
				c-8-5.5-16.4-12.6-26.8-9.7c-3.3,0.9-6.2,2.7-9.1,4.3c-1.4,0.8-2.7,1.5-4.1,2.2c-0.7,0.3-1.4,0.7-2.1,1c-0.4,0.2-0.9,0.4-1.3,0.6
				c-0.1,0-1.3,0.6-0.6,0.3c-6.2,2.6-12.7,4.4-19.4,5.4c-0.3,0.1-0.6,0.1-0.9,0.1c1.1-0.2-0.3,0-0.4,0c-0.7,0.1-1.4,0.1-2.1,0.1
				c-0.7,0-1.4,0-2.1,0c-1.3,0,0.6,0.2-0.2,0c-0.5-0.1-0.9-0.2-1.4-0.3c0,0-1.3-0.4-0.6-0.2c0.6,0.2-0.5-0.3-0.5-0.3
				s-1.2-0.7-0.5-0.3c0.6,0.4-0.3-0.2-0.3-0.3c-0.3-0.2-0.5-0.5-0.7-0.7c0.1,0.1,0.6,0.8,0.1,0.1c-0.4-0.6-0.7-1.2-1-1.8
				c0.6,1.1-0.2-0.5-0.3-0.9c-0.2-0.6-0.3-1.2-0.4-1.7c0-0.2-0.2-1.4-0.1-0.2c0-0.2-0.1-0.5-0.1-0.7c-0.1-0.7-0.1-1.5-0.1-2.2
				c-0.1-3,0.1-6,0.3-9c0.1-1.6,0.2-3.3,0.4-4.9c0-0.3,0.1-0.6,0.1-0.9c-0.1,1,0.1-0.6,0.1-0.6c0.1-0.9,0.3-1.8,0.5-2.7
				c0.3-1.5,0.7-3,1.2-4.5c0.2-0.7,0.5-1.5,0.8-2.2c0,0.1,0.5-1.3,0.3-0.7c-0.1,0.2-0.1,0.2,0.1-0.2c0.1-0.2,0.2-0.5,0.3-0.7
				c0.6-1.2,1.2-2.3,1.9-3.5c0.3-0.6,0.7-1.1,1.1-1.7c0.2-0.3,0.5-0.6,0.7-1c0.6-0.8-0.5,0.5,0.2-0.3c1.8-2.1,3.8-4.1,5.9-5.9
				c0.3-0.2,0.6-0.5,0.9-0.7c-0.7,0.6-0.1,0.1,0,0c0.6-0.4,1.2-0.9,1.8-1.3c1.2-0.8,2.5-1.6,3.8-2.3c1.2-0.7,2.5-1.3,3.8-1.8
				c-0.2,0.1-0.9,0.3,0,0c0.4-0.2,0.9-0.4,1.3-0.5c0.9-0.3,1.8-0.6,2.7-0.9c3.2-1,6.5-1.7,9.8-2.2c-0.8,0.1,0,0,0.2,0
				c0.5-0.1,0.9-0.1,1.4-0.2c0.8-0.1,1.6-0.1,2.4-0.2c1.8-0.1,3.5-0.2,5.3-0.2c3.3,0,6.6,0.2,9.8,0.6c0.4,0.1,0.8,0.1,1.3,0.1
				c-0.9-0.1-0.2,0,0,0c0.7,0.1,1.4,0.2,2.1,0.3c1.5,0.2,3.1,0.6,4.6,0.9c3,0.7,6,1.5,9,2.6c0.7,0.2,1.3,0.5,2,0.7
				c0.3,0.1,0.5,0.2,0.8,0.3c1.3,0.5-0.9-0.4,0.4,0.2c1.4,0.6,2.8,1.3,4.2,2c2.6,1.4,5.1,2.9,7.4,4.6c1.1,0.8-0.4-0.4,0.2,0.2
				c0.3,0.2,0.5,0.4,0.8,0.7c0.5,0.4,1.1,0.9,1.6,1.4c1.1,1,2.2,2.1,3.3,3.2c0.5,0.5,0.9,1,1.3,1.5c0.3,0.3,0.5,0.6,0.8,0.9
				c-0.6-0.7-0.1-0.2,0,0c0.9,1.2,1.7,2.4,2.5,3.6c0.7,1.2,1.4,2.4,2,3.6c0.1,0.3,0.3,0.6,0.4,0.9c0.1,0.1,0.6,1.4,0.2,0.3
				c0.3,0.7,0.6,1.5,0.9,2.2c0.9,2.6,1.6,5.3,2,8c-0.1-1,0-0.3,0-0.1c0,0.4,0.1,0.8,0.1,1.2c0.1,0.6,0.1,1.3,0.1,1.9
				c0,1.4,0,2.8-0.1,4.3c0,0.3-0.1,0.6-0.1,1c-0.1,0.8,0.2-1.1,0,0.1c-0.1,0.6-0.2,1.3-0.4,1.9c-0.3,1.4-0.7,2.8-1.2,4.1
				c-0.1,0.4-0.3,0.7-0.4,1.1c0.1-0.2,0.4-0.8,0,0c-0.3,0.6-0.6,1.2-0.9,1.8c-0.4,0.7-0.7,1.3-1.2,1.9c-0.2,0.3-0.4,0.6-0.6,0.8
				c0.6-0.8-0.1,0.1-0.3,0.3c-0.5,0.6-1,1.1-1.5,1.6c-0.2,0.2-0.5,0.4-0.8,0.7c-0.9,0.8,0.5-0.3-0.2,0.1s-1.3,0.8-1.9,1.2
				c-0.3,0.1-0.5,0.2-0.8,0.4c0.9-0.4-0.5,0.1-0.7,0.2c-0.7,0.2-1.5,0.4-2.3,0.5c-0.2,0-0.9,0.1,0,0c-0.4,0-0.9,0.1-1.3,0.1
				c-0.7,0-1.4,0-2.1,0c-0.3,0-0.6-0.1-0.9-0.1c-0.6-0.1-0.6-0.1,0,0c-0.3,0-0.6-0.1-0.9-0.2c-1.4-0.3-2.8-0.7-4.2-1.2
				c-1.3-0.4,0.5,0.2-0.3-0.1c-0.3-0.2-0.7-0.3-1-0.5c-0.8-0.4-1.6-0.8-2.3-1.3c-0.6-0.4-1.3-0.8-1.9-1.2c-0.4-0.2-0.7-0.5-1.1-0.8
				c-0.1-0.1-0.7-0.5-0.1-0.1c-1.3-1-2.5-2.1-3.7-3.2c-2.3-2.1-4.5-4.4-6.6-6.7c-1.7-1.8-5-1.8-6.7,0c-1.8,1.9-1.8,4.7,0,6.6
				c4.8,5.2,9.9,10.4,16.1,13.9c6.4,3.6,14.4,5.3,21.5,3.2c13.7-4.1,19.3-20.3,18-33.1c-1.3-13.1-8.1-25.1-18.6-33.3
				c-11-8.6-24.3-12.9-38-14.5c-14.4-1.7-29.9-0.1-42.7,7.1c-5.9,3.3-10.9,7.7-15,13c-4.2,5.5-6.7,12-7.9,18.8
				c-0.7,3.8-1,7.6-1.2,11.5c-0.2,3.1-0.3,6.2-0.1,9.3c0.3,3.3,0.9,6.6,2.6,9.6c1.8,3.2,4.9,5.6,8.4,6.7c3.6,1.2,7.5,0.8,11.2,0.3
				c3.6-0.5,7.1-1.2,10.5-2.1c7.2-1.9,14.1-4.8,20.6-8.4c1.5-0.8,3-1.7,4.5-2.5c0.3-0.2,0.7-0.3,1-0.5c-0.9,0.4,0.4-0.1,0.5-0.2
				c0.5-0.2,1.9-0.8,2.4-0.6c-0.2,0-0.4,0.1-0.7,0.1c0.2,0,0.4,0,0.6-0.1c0.3,0,0.6,0,0.9,0c0.5,0,1.1,0.1,1.6,0.1
				c0.7,0-1.2-0.2-0.2,0c0.3,0.1,0.6,0.1,0.9,0.2c0.6,0.1,1.1,0.3,1.7,0.5c0.1,0,0.8,0.4,0.8,0.3c-0.3,0.1-0.9-0.4,0,0
				c0.5,0.2,1,0.5,1.5,0.7c1.1,0.6,2.1,1.2,3.1,1.9c2.1,1.4,4.1,2.8,6.1,4.3c4.1,2.9,8.6,5.9,13.7,6.9c6.6,1.3,15.8-0.5,17.1-8.3
				c0.7-3.8-0.7-8.2-4.5-9.9c-2.2-1.1-5.2-0.7-6.5,1.7C293.1,382.7,293.5,385.9,295.9,387L295.9,387z"/>
		</g>
	</g>
	<g>
		<g>
			<path class="st0" d="M308.1,381.8c-0.2-0.3-0.3-0.6-0.5-0.9c-0.4-0.6,0.2,0.6,0,0c-0.1-0.6-0.3-1.1-0.5-1.7c0.2,1,0-0.4,0-0.8
				c0-0.7,0-1.4,0.1-2.1c0,0,0.1-1.3,0.1-0.6c-0.1,0.6,0.1-0.3,0.1-0.4c0.1-0.6,0.2-1.3,0.3-1.9c0.2-1.3,0.5-2.6,0.7-3.9
				c0.8-5.5,0.1-10.7-2.4-15.7c-4.7-9-14.1-14.8-23.2-18.6c-11.1-4.6-23.1-6.9-35.1-5.1c-9.8,1.5-19.6,6.5-25.9,14.2
				c-1.8,2.2-3.4,4.5-4.6,7.1c-1.2,2.5-2.2,5.1-3.2,7.6c-0.2,0.6-0.5,1.2-0.7,1.7c-0.1,0.2-0.2,0.5-0.3,0.7c0.4-1,0,0-0.1,0.2
				c-0.5,1.1-1,2.2-1.6,3.2c-0.3,0.5-0.6,1-0.9,1.5c0,0-0.7,0.9-0.3,0.4s-0.3,0.4-0.4,0.5c-0.4,0.4-0.8,0.8-1.3,1.2
				c-0.1,0.1-0.7,0.6-0.2,0.2s-0.6,0.4-0.7,0.4c2.3,0.9,4.6,1.9,6.9,2.8c-0.4-1-0.7-2-0.9-3c0-0.2-0.1-0.4-0.1-0.6
				c-0.1-0.7,0.1,0.8,0,0.1c0-0.6-0.1-1.2-0.1-1.8c0-1,0.1-2,0.1-2.9c0.1-0.7-0.2,0.8,0,0.1c0-0.2,0.1-0.4,0.1-0.6
				c0.1-0.7,0.3-1.3,0.5-1.9c0.3-0.9,0.6-1.8,0.9-2.7c0.3-0.8,0.1-0.2,0,0c0.1-0.2,0.2-0.5,0.3-0.7c0.3-0.6,0.5-1.1,0.8-1.6
				c0.5-0.9,1-1.7,1.6-2.6c0.1-0.2,1.1-1.4,0.5-0.7c0.3-0.4,0.7-0.8,1-1.2c0.8-0.8,1.6-1.6,2.4-2.4c0.4-0.3,0.7-0.7,1.1-1
				c0.2-0.2,0.4-0.4,0.7-0.6c0.2-0.2,0.8-0.6,0.2-0.2c1.8-1.4,3.8-2.6,5.8-3.8c2-1.1,4-2.1,6-3c0.5-0.2,1.1-0.5,1.6-0.7
				c0.1-0.1,1-0.4,0.4-0.2c-0.5,0.2,0.2-0.1,0.2-0.1c1.1-0.5,2.3-0.9,3.4-1.4c2.4-0.9,4.8-1.8,7.2-2.4c1.3-0.3,2.5-0.6,3.8-0.8
				c-0.8,0.1,0.7-0.1,0.9-0.1c0.7-0.1,1.5-0.1,2.2-0.1s1.3,0.1,2,0.1c0.1,0,0.9,0.1,0.2,0c0.2,0,0.5,0.1,0.7,0.1
				c1.4,0.2,2.7,0.6,4.1,0.9c2.5,0.7,5,1.5,7.4,2.3c5.1,1.6,10.2,3.2,15.3,4.9c0.6,0.2,1.1,0.4,1.7,0.6c-0.8-0.3,0.7,0.4,0.9,0.4
				c0.5,0.2,0.9,0.5,1.3,0.8c0.1,0.1,0.8,0.6,0.4,0.3c-0.4-0.3,0.4,0.4,0.5,0.5c0.4,0.4,0.8,0.8,1.2,1.2c-0.5-0.6,0.3,0.4,0.4,0.6
				c0.7,1,1.3,2.1,1.8,3.1c1.2,2.4,2.3,4.8,3.5,7.2c0.3,0.6,0.6,1.3,0.9,1.9c0.1,0.3,0.3,0.6,0.4,0.9c0.1,0.2,0.3,0.7,0.1,0.2
				c0.6,1.3,1.1,2.6,1.6,4c1,2.6,1.8,5.3,2.4,8.1c0.1,0.6,0.3,1.2,0.4,1.8c0.1,0.3,0.1,0.6,0.1,0.9c-0.1-0.8,0,0.2,0,0.4
				c0.2,1.5,0.2,2.9,0.2,4.4c0,2.3,1.8,4.3,4.1,4.6c2.4,0.3,4.4-1.1,5.2-3.3c2.5-7.5,2.8-15.4,1.4-23.2c-0.4-1.9-2.6-3.5-4.6-3.4
				c-4.4,0.2-6.6,3.5-7.6,7.4c-0.1,0.6-0.3,1.1-0.4,1.7c-0.1,0.2-0.1,0.5-0.2,0.7c-0.3,1,0.4-1-0.1,0.1c-0.4,0.9,0.6-0.6-0.1,0.1
				c-0.8,0.8,0.9-0.4-0.1,0.1c-0.3,0.2-0.6,0.3-0.9,0.5c1-0.6-0.2,0.1-0.6,0.1c-0.3,0.1-1.2,0.5-0.2,0.1c-0.3,0.1-0.8,0.1-1.1,0.1
				c-0.1,0-1.3-0.1-0.4,0c-0.5-0.1-0.9-0.2-1.4-0.3c-0.8-0.2-1.5-0.5-2.2-0.7c-1.4-0.5,0.8,0.4-0.6-0.3c-0.6-0.3-1.2-0.5-1.7-0.8
				c-3.4-1.6-6.9-3-10.5-4.2c-13.9-4.5-28.9-5.1-43.2-2.3c-8,1.6-15.9,4.4-23.1,8.3c2.2,2.1,4.3,4.3,6.5,6.4
				c1.2-1.8,2.5-3.6,3.8-5.3c0.3-0.4,0.6-0.8,0.9-1.2c0.1-0.2,0.3-0.3,0.4-0.5c-0.5,0.6,0,0,0.1-0.1c0.7-0.8,1.4-1.7,2.1-2.5
				c2.8-3.2,5.8-6.2,9.1-8.9c0.7-0.6,0.2-0.2,0.1-0.1c0.2-0.2,0.5-0.3,0.7-0.5c0.4-0.3,0.8-0.6,1.2-0.9c0.9-0.6,1.8-1.2,2.7-1.7
				c0.8-0.5,1.7-1,2.6-1.4c0.4-0.2,0.9-0.4,1.3-0.6c0.7-0.3-0.7,0.2,0,0c0.3-0.1,0.7-0.3,1-0.4c1.9-0.7,3.8-1.3,5.8-1.6
				c0.5-0.1,1-0.2,1.4-0.2c0.9-0.1,0.2,0,0,0c0.2,0,0.4,0,0.6-0.1c1.1-0.1,2.2-0.2,3.3-0.2s2.2,0.1,3.3,0.2c0.7,0.1-0.8-0.1,0,0
				c0.3,0.1,0.7,0.1,1,0.2c0.5,0.1,1.1,0.2,1.6,0.4c1.1,0.3,2.1,0.6,3.1,1c-0.8-0.3-0.2-0.1,0,0c0.3,0.2,0.6,0.3,0.9,0.4
				c0.5,0.3,1.1,0.6,1.6,0.9c-0.3-2.5-0.6-4.9-1-7.4c-0.3,0.3-0.6,0.6-0.9,0.9c-1,0.9,0.5-0.2-0.2,0.2c-0.3,0.2-1.5,0.7-1.8,1
				c0.7-0.3,0.8-0.3,0.3-0.1c-0.2,0.1-0.4,0.1-0.6,0.2c-0.4,0.1-0.8,0.2-1.1,0.3c-0.6,0.1-1.6,0.1-2.1,0.4c0.7-0.1,0.9-0.1,0.3-0.1
				c-0.2,0-0.4,0-0.6,0.1c-0.4,0-0.8,0.1-1.3,0.1c-0.8,0-1.5,0.1-2.3,0.1c-1.6,0-3.3,0-5-0.1c-6.9-0.1-14.7,0.2-19.5,5.8
				c-1.1,1.3-1.7,2.8-1.2,4.6c0.4,1.5,1.7,2.9,3.3,3.3c8.3,1.9,16.9,2.3,25.4,2.4c4.2,0.1,8.3,0.1,12.5,0.3c2,0.1,4,0.2,6.1,0.4
				c1,0.1,1.9,0.2,2.9,0.3c-0.8-0.1,0.2,0,0.5,0.1c0.6,0.1,1.2,0.2,1.8,0.3c2.2,0.4,4.3,0.9,6.5,1.5c1.1,0.3,2.3,0.7,3.4,1.1
				c0.2,0.1,0.4,0.2,0.6,0.2c0.1,0,0.9,0.4,0.5,0.2c-0.5-0.2,0.4,0.2,0.5,0.2c0.3,0.2,0.7,0.3,1,0.5c-0.3-2.5-0.6-4.9-1-7.4
				c-0.1,0.1-0.4,0.5-0.5,0.5c0,0,0.8-0.5,0.3-0.3c-0.5,0.3,0.4-0.2,0.4-0.1c0-0.1-0.6,0.2-0.6,0.2s1,0,0.4-0.1c-0.2,0-0.5,0-0.7,0
				s-0.3,0-0.5,0c-0.9,0,0.6,0.1,0,0c-1.9-0.4-3.6-1-5.5-1.5c-4.4-1.3-9-2.3-13.6-3c-9.6-1.4-19.2-1.8-28.9-1.7
				c-5.3,0.1-10.7,0.3-16,0.5c0.8,2.9,1.6,5.8,2.4,8.7c2.2-1.2,4.5-2.3,6.9-3.3c-0.7,0.3,0.9-0.4,1.1-0.4c0.6-0.2,1.2-0.5,1.8-0.7
				c1-0.4,2.1-0.7,3.2-1.1c4.8-1.6,9.6-2.9,14.5-4.1c2.5-0.6,4.9-1.2,7.4-1.8c2.8-0.6,4.1-0.9,7-0.8c0.5,0,1.1,0.1,1.6,0.1
				c-1.3-0.1,0.4,0.1,0.7,0.2c0.5,0.1,1,0.3,1.5,0.4c0.2,0.1,0.5,0.2,0.7,0.3c-0.5-0.2-0.6-0.2-0.1,0c0.4,0.3,0.9,0.5,1.3,0.8
				s0.4,0.3,0-0.1c0.2,0.2,0.4,0.3,0.6,0.5c0.4,0.3,0.7,0.7,1,1.1c-0.7-0.9,0.2,0.4,0.3,0.6c0.9-2.3,1.9-4.6,2.8-6.9
				c-1.6,0.5-3.2,0.9-4.9,1.2c-0.1,0-1.2,0.2-0.4,0.1c-0.4,0-0.8,0.1-1.2,0.1c-0.9,0.1-1.8,0.1-2.6,0.1c0.4,3.1,0.8,6.1,1.3,9.2
				c0.7-0.1,1.3-0.2,1.9-0.3c-0.8,0.1,1-0.1,1.2-0.1c1.2-0.1,2.5-0.2,3.7-0.2s2.5,0.1,3.7,0.2c0.3,0,0.7,0.1,1,0.1
				c-0.4-0.1-0.4-0.1,0.2,0c0.7,0.1,1.3,0.2,1.9,0.4c0-3,0-6,0-9c0.5-0.1,0.5-0.1,0.2-0.1s-0.3,0,0.2,0c-0.1,0-0.3-0.1-0.4-0.1
				c0.5,0.2,0.4,0.2-0.1-0.1c-2.2-1.2-5.3-0.6-6.5,1.7c-1.2,2.2-0.6,5.1,1.7,6.4c2.4,1.3,4.7,1.5,7.4,1.1c1.9-0.3,3.6-2.7,3.5-4.5
				c-0.1-2-1.4-4.1-3.5-4.5c-6.2-1.3-12.5-1.3-18.7-0.1c-2.3,0.4-3.7,3-3.4,5.1c0.3,2.3,2.3,4.1,4.6,4.1c3.9,0,7.9-0.6,11.7-1.8
				c3-0.9,4.3-4.1,2.8-6.9c-2.1-3.7-5.7-6.2-9.7-7.5c-4.5-1.5-9.3-1.1-13.9-0.2c-4.2,0.8-8.4,1.9-12.6,3c-4.1,1.1-8.2,2.2-12.2,3.6
				c-4.8,1.7-9.5,3.6-14,6.1c-4,2.2-2.3,8.9,2.4,8.7c9.8-0.4,19.5-0.8,29.3-0.3c2.4,0.1,4.9,0.3,7.3,0.5c1.1,0.1,2.3,0.2,3.4,0.4
				c0.2,0,1.6,0.2,0.9,0.1c0.7,0.1,1.5,0.2,2.2,0.3c4.7,0.7,9.4,1.8,14,3.2c4.8,1.5,10.9,2.9,14.6-1.5c1.8-2.1,2-6-1-7.4
				c-15.9-7.4-33.4-5.7-50.5-6.7c-2.3-0.1-4.7-0.3-7-0.6c0,0-0.8-0.1-0.3,0c0.6,0.1-0.6-0.1-0.7-0.1c-0.6-0.1-1.2-0.2-1.8-0.3
				c-1.2-0.2-2.4-0.5-3.5-0.7c0.7,2.6,1.4,5.2,2.1,7.8c0.3-0.3,0.5-0.6,0.8-0.9c0.1-0.1,0.3-0.3,0.4-0.4c0.4-0.3,0.3-0.2-0.3,0.2
				c0.3,0,1.4-0.8,1.7-1c0.7-0.4-1,0.4,0.2-0.1c0.4-0.1,0.7-0.2,1.1-0.3c0.7-0.2,1.4-0.3,2-0.4c0.8-0.1-1.1,0.1,0.3,0
				c0.4,0,0.8-0.1,1.3-0.1c0.7,0,1.5-0.1,2.2-0.1c1.6,0,3.3,0,4.9,0.1c7,0.1,14.7-0.1,19.8-5.6c2.1-2.2,1.7-5.7-1-7.4
				c-8.3-5-18.8-5.4-27.9-2.6c-9.3,2.9-17.2,9-23.6,16.1c-3.6,4.1-6.9,8.5-10,13c-1.1,1.6-0.7,4.3,0.7,5.7c1.6,1.4,3.8,1.8,5.7,0.7
				c1.5-0.8,3.1-1.6,4.7-2.3c0.4-0.2,0.8-0.4,1.2-0.5c1.3-0.6-0.9,0.3,0.5-0.2c0.8-0.3,1.6-0.6,2.4-0.9c3.2-1.2,6.6-2.2,10-2.9
				c1.7-0.4,3.4-0.7,5.1-1c0.3,0,0.6-0.1,0.9-0.1c0.1,0,1.5-0.2,0.5-0.1c1-0.1,2-0.2,3-0.3c3.5-0.3,6.9-0.4,10.4-0.3
				c1.6,0.1,3.2,0.2,4.8,0.3c0.9,0.1,1.7,0.2,2.6,0.3c-1.1-0.1,0.3,0.1,0.5,0.1c0.6,0.1,1.1,0.2,1.7,0.3c3.3,0.6,6.5,1.3,9.7,2.3
				c1.7,0.5,3.3,1.1,4.9,1.7c0.4,0.2,0.8,0.3,1.2,0.5c1.3,0.5-0.8-0.4,0.5,0.2c0.8,0.4,1.6,0.7,2.4,1.1c3.7,1.7,7.7,3.6,11.9,3.5
				c4.3-0.1,8.8-2.1,10.9-6c0.8-1.5,1.2-3.1,1.6-4.7c0.1-0.3,0.2-0.6,0.2-0.9c0.4-1.3-0.3,0.4,0-0.2c0.2-0.4,0.7-0.7-0.2,0.1
				c-0.4,0.4-0.8,0.6-1.3,0.7c0.5-0.1,0.3-0.1-0.5,0c-1.5-1.1-3-2.3-4.6-3.4c0.1,0.5,0.2,0.9,0.2,1.4c0,0.3,0.1,0.7,0,0.2
				c0.1,0.9,0.2,1.7,0.2,2.6c0.1,1.7,0.1,3.3,0,5c-0.1,0.8-0.1,1.6-0.2,2.4c0.1-0.7,0,0.1-0.1,0.4c-0.1,0.4-0.1,0.8-0.2,1.2
				c-0.3,1.7-0.8,3.4-1.3,5.1c3.1,0.4,6.2,0.8,9.3,1.2c0-11.4-4.8-21.9-9.7-32c-2.3-4.9-5.1-9.6-10.1-12.2c-2.5-1.3-5.2-2.2-7.9-3.1
				c-2.8-0.9-5.6-1.8-8.4-2.7c-5.5-1.8-11-3.9-16.7-4.7c-6.2-0.8-12.1,0.2-17.9,2.3c-9.8,3.4-19.8,7.7-27.4,15
				c-8.1,7.8-13.1,20.1-9.1,31.1c1,2.7,4.2,4.5,6.9,2.8c4.1-2.6,6.9-6.4,8.8-10.7c1-2.2,1.9-4.5,2.8-6.8c0.2-0.5,0.4-1,0.6-1.6
				c0.1-0.3,0.7-1.6,0.2-0.6c0.5-1,0.9-2,1.4-3s1.1-1.9,1.7-2.8c0.1-0.2,0.3-0.4,0.5-0.6c0.4-0.6-0.5,0.6,0,0c0.4-0.5,0.8-1,1.3-1.5
				c0.7-0.8,1.5-1.6,2.3-2.3c0.4-0.3,0.8-0.7,1.2-1c0.2-0.2,0.4-0.3,0.6-0.5c-0.8,0.7,0.2-0.1,0.3-0.2c1.8-1.3,3.8-2.4,5.8-3.4
				c0.3-0.1,0.6-0.3,0.9-0.4c0.1-0.1,0.9-0.4,0.3-0.2s0.2-0.1,0.4-0.1c0.3-0.1,0.6-0.2,0.9-0.3c1.1-0.4,2.3-0.8,3.4-1.1
				c1-0.3,2-0.5,3.1-0.7c0.5-0.1,1-0.2,1.6-0.3c-0.8,0.1,0.2,0,0.4,0c0.4,0,0.8-0.1,1.2-0.1c2.8-0.2,5.7-0.2,8.5,0
				c0.6,0.1,1.3,0.1,1.9,0.2c0.1,0,0.9,0.1,0.2,0c0.3,0,0.6,0.1,0.9,0.1c1.4,0.2,2.8,0.5,4.2,0.8c2.7,0.6,5.4,1.4,8,2.3
				c1.3,0.4,2.5,0.9,3.8,1.4c0.1,0,0.8,0.4,0.2,0.1c0.2,0.1,0.5,0.2,0.7,0.3c0.6,0.3,1.2,0.5,1.7,0.8c2.1,1,4.1,2.1,6,3.4
				c0.4,0.3,0.9,0.6,1.3,0.9c0.3,0.2,0.5,0.4,0.8,0.6c0.2,0.1,0.7,0.6,0,0c0.9,0.7,1.8,1.5,2.6,2.3c0.7,0.7,1.5,1.4,2.1,2.2
				c0.2,0.2,0.4,0.5,0.6,0.7c0.1,0.1,0.6,0.7,0.2,0.2s0.1,0.1,0.2,0.3c0.2,0.2,0.4,0.5,0.5,0.8c0.7,1,1.2,2.1,1.8,3.2
				c-0.5-0.9-0.1-0.4-0.1-0.1c0.1,0.3,0.3,0.7,0.4,1c0.2,0.6,0.3,1.1,0.5,1.7c0.1,0.2,0.1,0.5,0.1,0.7c0.1,0.4,0.4,1.1,0,0.2
				c0.2,0.4,0.1,1.2,0.1,1.7c0,0.7,0,1.4-0.1,2c0,0.3-0.1,0.6-0.1,0.9s0,0.3,0-0.2c0,0.2-0.1,0.4-0.1,0.6c-1,6.2-2.8,12.8,0.9,18.5
				c1.3,2.1,4.3,3.1,6.5,1.7C308.5,386.9,309.5,384,308.1,381.8L308.1,381.8z"/>
		</g>
	</g>
	<g>
		<g>
			<path class="st0" d="M268.6,348.5c1.3,3.2,2.6,6.5,5.2,8.9c2.9,2.7,7.1,4.2,11.1,3c1.2-0.4,2.2-1.1,2.8-2.2
				c0.6-1,0.8-2.5,0.5-3.6c-0.4-1.1-1.1-2.2-2.2-2.8c-1.1-0.6-2.4-0.9-3.6-0.5c-0.3,0.1-0.6,0.2-0.9,0.2c0.4-0.1,0.8-0.1,1.3-0.2
				c-0.5,0.1-0.9,0.1-1.4,0c0.4,0.1,0.8,0.1,1.3,0.2c-0.6-0.1-1.1-0.2-1.7-0.5c0.4,0.2,0.8,0.3,1.1,0.5c-0.7-0.3-1.3-0.6-1.8-1.1
				c0.3,0.2,0.6,0.5,1,0.7c-0.6-0.5-1.2-1-1.6-1.6c0.2,0.3,0.5,0.6,0.7,0.9c-1-1.3-1.7-2.8-2.4-4.3c0.2,0.4,0.3,0.7,0.5,1.1
				c-0.2-0.5-0.4-1-0.6-1.5c-0.5-1.2-1-2.1-2.2-2.8c-1-0.6-2.5-0.8-3.6-0.5c-1.1,0.4-2.2,1.1-2.8,2.2
				C268.5,345.9,268.1,347.3,268.6,348.5L268.6,348.5z"/>
		</g>
	</g>
	<g>
		<g>
			<path class="st0" d="M449.7,195.7c3.8,9.4,6.8,19,9.1,28.8c1.1,4.9,2.1,9.8,2.8,14.7c0.1,0.6,0.2,1.2,0.3,1.8c-0.1-1,0,0,0,0.4
				c0.1,1,0.2,2,0.3,3c0.1,2,0.1,3.9-0.1,5.8c0.1-1,0,0-0.1,0.4s-0.2,0.8-0.3,1.2c-0.1,0.5-0.3,0.9-0.4,1.4
				c-0.1,0.2-0.2,0.4-0.2,0.7c-0.2,0.5-0.1,0.1,0.1-0.1c-0.4,0.8-0.8,1.5-1.3,2.3c-0.4,0.5,0.5-0.6,0.1-0.1
				c-0.2,0.2-0.3,0.4-0.5,0.5c-0.1,0.1-0.3,0.3-0.4,0.4c0,0-0.8,0.8-0.4,0.4c0.5-0.4-0.2,0.1-0.3,0.2c-0.2,0.2-0.5,0.3-0.7,0.4
				c-0.4,0.2-0.9,0.5-1.3,0.7c0.8-0.4-0.4,0.1-0.6,0.2c-0.6,0.2-1.2,0.3-1.8,0.4c-0.3,0.1-0.6,0.1-0.8,0.1c0.1,0,0.8-0.1,0.2,0
				c-0.6,0-1.1,0.1-1.7,0.1c-0.5,0-1,0-1.5,0c0.5,0,0.3,0.3-0.1,0c0.1,0.1,1,0.7,0.5,0.3c-0.4-0.4,0.1,0.2,0.2,0.2
				c-0.1-0.2-0.3-0.4-0.4-0.7c0.4,0.9-0.1-0.4-0.2-0.7c-0.3-1.2-0.6-2.3-0.8-3.5c-0.1-0.3-0.1-0.6-0.2-0.9c-0.1-0.8,0.1,0.6,0-0.2
				c-0.1-0.6-0.1-1.1-0.2-1.7c-0.1-1.3-0.2-2.6-0.2-3.8c0-2.5,0.1-5,0.4-7.5c0.1-0.6,0.1-1.1,0.2-1.7c0-0.1,0.1-0.9,0-0.2
				c0-0.3,0.1-0.6,0.1-1c0.2-1.3,0.4-2.6,0.7-3.8c2.2-11.5,5.9-22.7,7.4-34.3c0.3-2.4-2.4-4.8-4.7-4.7c-2.8,0.1-4.4,2.1-4.7,4.7
				c-0.1,1-0.1,0.5,0,0.2c0,0.3-0.1,0.7-0.1,1c-0.1,0.7-0.2,1.3-0.3,2c-0.3,1.5-0.5,2.9-0.9,4.4c-0.6,2.7-1.2,5.4-1.9,8
				c-1.3,5.3-2.7,10.6-3.8,16c-1.1,5.6-1.8,11.2-1.8,16.9c0,2.9,0.3,5.8,0.8,8.7c0.4,2.6,0.9,5.4,2.3,7.6c2,3.1,5.2,4.3,8.8,4.2
				c2.6-0.1,5.2-0.4,7.7-1.3c5.2-1.9,8.9-5.5,11-10.5c1.7-4.1,1.9-8.7,1.6-13.1c-0.4-5.2-1.3-10.3-2.3-15.4
				c-2.4-12-5.9-23.9-10.5-35.3c-0.9-2.3-3.2-4.1-5.8-3.3C450.8,190.6,448.8,193.2,449.7,195.7L449.7,195.7z"/>
		</g>
	</g>
	<g>
		<g>
			<path class="st0" d="M458.5,198.1c0-0.6,0-1.1,0-1.6c0-0.6-0.1-1.2-0.4-1.8c-0.2-0.6-0.5-1.1-1-1.5c-0.4-0.5-0.9-0.8-1.5-1
				c-0.6-0.3-1.2-0.4-1.8-0.4c-0.4,0.1-0.8,0.1-1.3,0.2c-0.8,0.2-1.5,0.6-2.1,1.2c-0.2,0.3-0.5,0.6-0.7,0.9
				c-0.4,0.7-0.6,1.5-0.6,2.4c0,0.6,0,1.1,0,1.6c0,0.6,0.1,1.2,0.4,1.8c0.2,0.6,0.5,1.1,1,1.5c0.4,0.5,0.9,0.8,1.5,1
				c0.6,0.3,1.2,0.4,1.8,0.4c0.4-0.1,0.8-0.1,1.3-0.2c0.8-0.2,1.5-0.6,2.1-1.2c0.2-0.3,0.5-0.6,0.7-0.9
				C458.2,199.8,458.5,199,458.5,198.1L458.5,198.1z"/>
		</g>
	</g>
	<g>
		<g>
			<path class="st0" d="M403.8,266.4c2.5,0,4.8-2.2,4.7-4.7c-0.1-2.5-2.1-4.7-4.7-4.7c-2.5,0-4.8,2.2-4.7,4.7
				C399.2,264.3,401.2,266.4,403.8,266.4L403.8,266.4z"/>
		</g>
	</g>
	<g>
		<g>
			<path class="st0" d="M400.4,265.5c2.4,4.2,4.8,8.3,7,12.6c1.1,2.1,2.2,4.3,3.2,6.5c0.2,0.5,0.4,1,0.7,1.5c-0.3-0.7,0,0.1,0.1,0.2
				c0.1,0.3,0.2,0.6,0.3,0.9c0.5,1.1,0.9,2.3,1.3,3.4c0.8,2.2,1.5,4.5,2,6.8c0.3,1.1,0.5,2.2,0.7,3.3c0.1,0.5,0.2,1,0.3,1.6
				c0,0.1,0.2,1.1,0.1,0.5c-0.1-0.5,0.1,0.8,0.1,0.7c0.3,2.3,0.4,4.6,0.3,6.8c0,0.6-0.1,1.2-0.1,1.8c0,0.1-0.1,0.9,0,0.1
				c0,0.2-0.1,0.4-0.1,0.7c-0.1,0.6-0.2,1.2-0.4,1.8c-0.1,0.2-0.1,0.4-0.2,0.6c-0.4,1.3,0.4-0.6-0.2,0.5c-0.2,0.4-0.5,0.9-0.7,1.3
				c-0.2,0.3-0.9,1.1-0.2,0.4c-0.3,0.4-0.7,0.7-1,1.1c-0.3,0.2-1.3,1-0.5,0.4c-0.8,0.5-1.5,1-2.4,1.4c-0.4,0.2-1.3,0.5-0.4,0.2
				c-0.5,0.2-1.1,0.4-1.6,0.5c-0.9,0.3-1.8,0.4-2.8,0.6c1.1-0.2-0.3,0-0.6,0.1c-0.5,0-1,0.1-1.5,0.1s-1,0-1.5,0
				c-0.2,0-0.4,0-0.6-0.1c-0.7-0.1,0.8,0.2,0.1,0c-0.4-0.1-0.9-0.2-1.3-0.3c-0.8-0.2-0.1,0,0.1,0.1c-0.3-0.1-0.5-0.3-0.8-0.4
				c-0.2-0.1-0.7-0.6-0.3-0.2s0-0.1-0.1-0.1c-0.6-0.6-0.1-0.1,0,0c-0.2-0.2-0.3-0.5-0.4-0.8c0.4,0.7-0.1-0.5-0.2-0.7
				c-0.2-0.7-0.4-1.4-0.5-2c-0.1-0.3-0.1-0.6-0.2-0.9c0,0-0.1-0.8-0.1-0.3c0.1,0.5-0.1-0.5-0.1-0.6c0-0.3-0.1-0.6-0.1-0.9
				c-0.1-1.3-0.1-2.5-0.1-3.8c0-1.2,0.1-2.4,0.3-3.6c0-0.2,0.1-0.5,0.1-0.7c0.1-0.8-0.1,0.6,0-0.2c0.1-0.7,0.2-1.4,0.4-2.2
				c0.5-2.4,1.1-4.8,1.7-7.1c3.1-11.1,7.8-21.9,7.5-33.6c-0.1-2.4-2.1-4.8-4.7-4.7c-2.5,0.1-4.8,2.1-4.7,4.7c0,1.3,0,2.6-0.1,3.8
				c0,0.6-0.1,1.3-0.2,1.9c0,0.3-0.1,0.6-0.1,1c0.1-0.9-0.1,0.6-0.1,0.7c-0.4,2.7-1.1,5.4-1.8,8c-1.5,5.2-3.3,10.3-4.8,15.5
				c-1.6,5.4-2.7,11.1-2.9,16.7c-0.1,3,0.2,5.9,0.8,8.8c0.6,2.9,1.6,5.8,3.9,7.9c4,3.7,9.9,3.9,15,3.1c4.7-0.7,9.5-2.8,12.8-6.2
				c4-4.2,5.3-9.9,5.3-15.5c0-5.3-0.8-10.7-2.2-15.9c-3.2-11.6-9.2-22.2-15.2-32.5c-1.2-2.1-4.3-3-6.5-1.7
				C399.9,260.5,399.1,263.3,400.4,265.5L400.4,265.5z"/>
		</g>
	</g>
	<g>
		<g>
			<path class="st0" d="M333.3,266.2c3.9-9.9,6.3-20.2,7.4-30.8c0.3-2.4-2.4-4.8-4.7-4.7c-2.8,0.1-4.5,2.1-4.7,4.7
				c-0.3,2.7-0.5,4-1,6.9c-0.4,2.4-0.9,4.8-1.5,7.1c-1.2,4.9-2.8,9.6-4.6,14.3c-0.9,2.3,1,5.2,3.3,5.8
				C330.2,270.1,332.3,268.6,333.3,266.2L333.3,266.2z"/>
		</g>
	</g>
	<g>
		<g>
			<path class="st0" d="M333.8,240c3,7.4,5.9,14.8,8.2,22.4c1.1,3.7,2.1,7.5,2.8,11.2c0.2,0.9,0.3,1.9,0.5,2.8
				c0.1,0.5,0.1,0.9,0.2,1.4c0-0.2-0.1-0.8,0,0.2c0.2,2.1,0.4,4.2,0.5,6.2c0,0.9,0.1,1.9,0,2.8c0,0.4,0,0.9-0.1,1.3
				c0.1-1-0.1,0.3-0.1,0.5c-0.1,0.3-0.2,0.6-0.3,0.8c0.4-1-0.1,0.1-0.2,0.2c0.5-0.9,0.1-0.1-0.2,0.1c-0.2,0.2-0.3,0.3-0.5,0.5
				c0.5-0.4,0.5-0.4,0.1-0.1c-0.3,0.2-0.7,0.4-1,0.5c-1,0.6,0.9-0.2-0.3,0.1c-0.7,0.2-1.5,0.4-2.2,0.6c-1.2,0.3,1,0-0.2,0
				c-0.3,0-0.6,0-0.9,0.1c-0.5,0-0.9,0-1.4,0c-0.2,0-2-0.2-1,0c-0.9-0.1-1.8-0.4-2.6-0.7c-1.3-0.4,0.5,0.4-0.5-0.2
				c-0.3-0.2-0.6-0.3-1-0.5c-0.3-0.2-0.6-0.4-0.9-0.6c1,0.7,0,0-0.2-0.2c-0.5-0.5-1-1-1.5-1.5c0.8,0.9,0,0-0.1-0.2
				c-0.2-0.3-0.4-0.6-0.6-0.9c-0.4-0.6-0.7-1.3-1-1.9c0.5,1.1,0-0.1-0.1-0.2c-0.1-0.3-0.2-0.7-0.3-1.1c-0.2-0.7-0.4-1.4-0.5-2.2
				c0-0.2-0.2-1.4-0.1-0.2c-0.1-0.5-0.1-1-0.1-1.5c0-0.9,0-1.8,0-2.7c0-0.5,0.1-0.9,0.1-1.4c-0.1,0.9,0.2-0.9,0.2-1.1
				c0.2-0.9,0.4-1.8,0.7-2.7c1.3-4.5,2.7-7.3,4.8-11.5c1.1-2.2,0.7-5.2-1.7-6.4c-2.1-1.1-5.3-0.7-6.5,1.7
				c-3.7,7.7-7.8,16.1-7.1,24.9c0.7,7.9,4.6,15.7,12.3,18.9c8,3.3,19.9,1.7,23.4-7.1c1.6-4,0.9-9,0.5-13.1
				c-0.5-4.6-1.3-9.3-2.5-13.8c-2.4-9.6-6.1-18.8-9.8-28c-0.9-2.3-3.2-4.1-5.8-3.3C334.9,235,332.8,237.6,333.8,240L333.8,240z"/>
		</g>
	</g>
	<g>
		<g>
			<path class="st0" d="M370.3,379.1c-0.1-3.9,0.1-7.8,0.6-11.7c0.1-1.1-0.6-2.6-1.4-3.3c-0.8-0.8-2.2-1.4-3.3-1.4
				c-1.2,0.1-2.5,0.4-3.3,1.4c-0.2,0.3-0.5,0.6-0.7,0.9c-0.4,0.7-0.6,1.5-0.6,2.4c-0.5,3.9-0.7,7.8-0.6,11.7c0,1.2,0.5,2.4,1.4,3.3
				c0.8,0.8,2.2,1.4,3.3,1.4C368.1,383.7,370.4,381.7,370.3,379.1L370.3,379.1z"/>
		</g>
	</g>
	<g>
		<g>
			<path class="st0" d="M369.5,365.7c2.5,0,4.8-2.2,4.7-4.7c-0.1-2.5-2.1-4.7-4.7-4.7c-2.5,0-4.8,2.2-4.7,4.7
				C364.9,363.6,366.8,365.7,369.5,365.7L369.5,365.7z"/>
		</g>
	</g>
	<g>
		<g>
			<path class="st0" d="M366.1,367.5c2.9,7.6,6.2,15.1,8.3,23c0.5,1.8,0.9,3.7,1.3,5.6c0.1,0.5,0.2,0.9,0.2,1.4
				c0.3,1.5-0.1-0.9,0.1,0.6c0.1,1.1,0.2,2.2,0.3,3.2c0.1,1.7,0.1,3.4,0,5.1c-0.1,0.9-0.1,1.8-0.3,2.8c0.1-1-0.1,0.5-0.1,0.6
				c-0.1,0.6-0.2,1.2-0.4,1.8c-0.2,0.9-0.5,1.8-0.7,2.7c-0.1,0.4-0.3,0.9-0.5,1.3c0,0.1-0.6,1.5-0.2,0.6c-0.3,0.8-0.7,1.5-1.1,2.2
				c-0.2,0.4-0.4,0.7-0.7,1c0.6-0.8-0.4,0.5-0.6,0.6c-0.1,0.1-1.1,0.9-0.3,0.3c-0.3,0.2-0.7,0.4-1,0.6c-1,0.6,0.7-0.1-0.3,0.1
				c-0.3,0-1.4,0.1-0.3,0.1c-0.3,0-1.4-0.1-0.3,0.1c-0.3-0.1-1.4-0.5-0.3,0c-0.1-0.1-0.8-0.4-0.9-0.5c0.5,0.4,0.6,0.5,0.2,0.1
				c-0.2-0.1-0.3-0.3-0.4-0.5c0.1,0.1,0.2,0.3,0.3,0.4c-0.1-0.2-0.2-0.4-0.4-0.5c-0.1-0.2-0.5-0.7-0.5-0.9c0.1,0.2,0.1,0.3,0.2,0.5
				c-0.1-0.2-0.2-0.4-0.2-0.6c-0.1-0.3-0.2-0.7-0.3-1c-0.2-0.7-0.4-1.4-0.4-2.1c0,1.1,0.1,0.5,0,0.2c0-0.5-0.1-0.9-0.1-1.4
				c-0.3-4.1-0.2-8.3-0.1-12.4c0.1-2.3,0.2-4.7,0.4-7c0.1-1.2,0.2-2.3,0.3-3.5c0.1-0.5,0.1-1,0.2-1.5c0-0.3,0.1-0.7,0.1-1
				c-0.1,0.4,0,0.3,0-0.2c0.7-4.6,1.6-9.3,2.7-13.8c0.6-2.4-0.8-5.2-3.3-5.8c-2.4-0.6-5.2,0.7-5.8,3.3c-2.2,9.2-3.6,18.6-4.1,28.1
				c-0.2,4.6-0.2,9.2,0,13.7c0.2,3.6,0.8,7.6,2.9,10.7c2.8,4,7.7,5.9,12.5,4.4c4.5-1.4,7.7-5,9.5-9.2c3.9-8.6,4.1-18,2.4-27.2
				c-1.8-9.9-6-19.2-9.6-28.5c-0.9-2.3-3.2-4.1-5.8-3.3C367.2,362.4,365.2,365,366.1,367.5L366.1,367.5z"/>
		</g>
	</g>
	<g>
		<g>
			<path class="st0" d="M115.6,354c1.4,4.5,3.2,8.8,4.6,13.2c0.7,2.1,1.3,4.3,1.7,6.5c0.1,0.3,0.1,0.6,0.1,0.9
				c-0.1-0.5-0.1-0.5,0,0.1s0.1,1.2,0.1,1.8c0.1,1.1,0.1,2.2,0,3.3c0,0.2-0.2,1.7-0.1,0.8c-0.1,0.6-0.2,1.1-0.4,1.6
				c-0.1,0.2-0.2,0.5-0.3,0.7c0.3-0.6,0.3-0.6,0.1-0.1c-0.2,0.4-0.4,0.7-0.6,1.1c-0.1,0.2-0.4,0.9-0.6,1c0.4-0.5,0.5-0.6,0.1-0.2
				c-0.1,0.2-0.3,0.3-0.4,0.5c-0.3,0.3-0.6,0.6-0.9,0.9c-0.2,0.1-0.3,0.3-0.5,0.4c0.5-0.4,0.6-0.5,0.3-0.2c-0.7,0.3-1.4,0.8-2.1,1.2
				c-0.5,0.2-0.4,0.2,0.2-0.1c-0.2,0.1-0.4,0.2-0.6,0.2c-0.4,0.1-0.7,0.2-1.1,0.3c-0.4,0.1-0.8,0.2-1.2,0.3
				c-0.3,0.1-1.8,0.4-0.5,0.1c-0.9,0.2-2,0.2-2.9,0.2c0.8,0.2,1.6,0.4,2.4,0.6c-0.4-0.3-0.9-0.6-1.3-0.8c-0.2-0.1-0.4-0.3-0.6-0.4
				c0,0,0.6,0.5,0.2,0.2c-0.7-0.6-1.5-1.3-2.1-2c-0.1-0.1-0.9-1-0.5-0.5c0.5,0.5-0.3-0.4-0.4-0.5c-0.5-0.7-0.9-1.5-1.2-2.2
				c-0.3-0.5,0.3,0.9,0.1,0.3c0-0.1-0.1-0.3-0.2-0.4c-0.1-0.4-0.2-0.7-0.3-1.1c-0.1-0.4-0.2-0.8-0.3-1.1c0-0.1-0.1-0.3-0.1-0.4
				c-0.2-0.9,0.1,0,0,0.2c0.2-0.5-0.1-1.7-0.1-2.2c0-0.9,0-1.7,0.1-2.6c0-0.2,0-0.3,0.1-0.5c0-0.6-0.2,0.9,0,0.3
				c0.1-0.4,0.1-0.7,0.2-1.1c0.2-0.9,0.4-1.8,0.6-2.7c0.4-1.7,1-3.3,1.6-5s1.3-3.5,2-5.1c-0.4,0.9,0,0.1,0.1-0.3
				c0.2-0.4,0.3-0.7,0.5-1.1c0.4-0.9,0.8-1.8,1.2-2.7c1.7-3.7,3.4-7.4,4.8-11.3c0.8-2.3-0.9-5.2-3.3-5.8c-2.6-0.6-4.9,0.8-5.8,3.3
				c-0.5,1.4-1,2.9-1.7,4.3c0.6-1.2,0,0.1-0.2,0.4c-0.2,0.4-0.3,0.7-0.5,1.1c-0.3,0.8-0.7,1.5-1,2.3c-1.5,3.4-3.1,6.8-4.4,10.3
				c-2.6,6.5-4.4,13.5-3.2,20.6c0.6,3.6,2.3,6.8,4.6,9.6c1.3,1.5,2.8,2.8,4.4,4c1.1,0.8,2.3,1.6,3.7,1.8c1.1,0.1,2.1,0.1,3.2,0
				c4.3-0.5,8.3-1.7,11.7-4.4c3.1-2.4,5.6-6.3,6.2-10.2c0.9-5.6,0.3-11.2-1.4-16.6c-1.5-5.1-3.6-9.9-5.2-15
				c-0.7-2.3-3.3-4.1-5.8-3.3C116.6,349,114.8,351.5,115.6,354L115.6,354z"/>
		</g>
	</g>
	<g>
		<g>
			<path class="st0" d="M73.5,254.9c1,2,2,4.1,2.9,6.2c0.2,0.4,0.4,0.8,0.6,1.3c0.1,0.3,0.2,0.6,0.4,0.8c-0.2-0.4-0.2-0.4,0.1,0.2
				c0.4,1,0.8,2,1.2,3c1.6,4.1,2.9,8.3,3.9,12.6c0.5,2.2,0.9,4.4,1.2,6.6c-0.1-0.9,0.1,0.5,0.1,0.6c0.1,0.6,0.1,1.2,0.2,1.8
				c0.1,1.1,0.2,2.1,0.2,3.2c0.1,2.1,0,4.3-0.2,6.4c-0.1,0.6-0.1,1.2-0.2,1.8c-0.1,1.1,0.1-0.4-0.1,0.6c-0.2,1.2-0.4,2.4-0.7,3.6
				c0.4-0.7,0.8-1.4,1.2-2.1c-0.4,0.4-0.7,0.8-1.1,1.2c-0.2,0.2-0.4,0.3-0.5,0.5c-0.5,0.5,0.7-0.4,0.1-0.1c-0.5,0.3-0.9,0.6-1.4,0.9
				c-0.2,0.1-0.4,0.2-0.6,0.3c-0.9,0.5,0.8-0.2-0.2,0.1c-0.9,0.3-1.8,0.6-2.7,0.8c-0.2,0-0.5,0.1-0.7,0.1c0.9,0.1,0.6-0.1,0.2,0
				c-0.6,0-1.2,0.1-1.8,0.1c-0.5,0-1.1,0-1.6-0.1c-0.2,0-0.5-0.1-0.7-0.1c-0.7-0.1,0.9,0.2,0.2,0c-1-0.3-2.1-0.4-3.2-0.8
				c-0.3-0.1-1.6-0.4-0.4-0.1c-0.4-0.1-0.8-0.4-1.2-0.6c-0.8-0.4,0.1,0.1,0.2,0.2c-0.1-0.1-0.4-0.3-0.5-0.4c-0.3-0.2-1-0.8-1.1-1.2
				c0.1,0.5,0.4,0.6,0.1,0.1c-0.2-0.2-0.3-0.5-0.5-0.7c-0.2-0.4-0.5-0.8-0.7-1.2c-0.1-0.3-0.3-0.5-0.4-0.8c0.1,0.1,0.3,0.9,0.1,0.1
				c-0.2-0.6-0.4-1.1-0.6-1.7c-0.1-0.5-0.2-0.9-0.3-1.4c-0.1-0.2-0.1-0.5-0.1-0.7c-0.2-1,0,0.2,0,0.2c-0.3-0.2-0.2-2.8-0.2-3.2
				c0-0.5,0.1-1,0.1-1.6s-0.3,0.8,0,0.2c0.1-0.3,0.2-0.7,0.3-1.1c0.4-1.3,0.9-2.7,1.3-4c0.4-1.2,0.8-2.3,1.3-3.5
				c0.2-0.6,0.5-1.3,0.8-1.9c0.1-0.3,0.2-0.6,0.3-0.8c0.2-0.5-0.2,0.4,0.1-0.3c2.4-5.4,5.2-10.5,8.6-15.3c1.4-2,0.4-5.3-1.7-6.4
				c-2.4-1.3-4.9-0.5-6.5,1.7c-5.7,7.9-9.8,16.9-12.8,26.1c-0.8,2.3-1.3,4.6-1.3,7.1c0,2.1,0.2,4.3,0.7,6.4c0.9,4,2.9,8.2,6.2,10.9
				c3.4,2.8,8.1,3.9,12.5,4.1c4.2,0.2,8.8-0.8,12.3-3.1c2.3-1.5,4.8-3.5,5.4-6.3c0.6-2.6,0.9-5.3,1.2-8c0.4-5.1,0-10.1-0.8-15.1
				c-1.8-11.1-6.1-21.7-11.1-31.7c-1.1-2.2-4.4-3-6.5-1.7C72.9,250,72.3,252.6,73.5,254.9L73.5,254.9z"/>
		</g>
	</g>
	<g>
		<g>
			<path class="st0" d="M78.8,262c0.4-0.5,0.7-1,1-1.5c0.5-0.9,0.9-1.8,1.2-2.7c0.2-0.6,0.3-1.2,0.4-1.8c0.1-1,0.3-2,0.3-3
				c0-1.2-0.5-2.4-1.4-3.3c-0.4-0.5-0.9-0.8-1.5-1c-0.6-0.3-1.2-0.4-1.8-0.4c-1.2,0.1-2.5,0.4-3.3,1.4c-0.8,0.9-1.4,2-1.4,3.3
				c0,0.6,0,1.1-0.1,1.7c0.1-0.4,0.1-0.8,0.2-1.2c-0.1,0.9-0.4,1.8-0.8,2.7c0.2-0.4,0.3-0.7,0.5-1.1c-0.3,0.8-0.8,1.5-1.3,2.2
				c-0.3,0.5-0.5,1.1-0.6,1.7s-0.1,1.2,0.1,1.9c0.3,1.1,1.1,2.3,2.2,2.8c1.1,0.6,2.4,0.9,3.6,0.5c0.4-0.2,0.8-0.3,1.1-0.5
				C77.8,263.2,78.3,262.7,78.8,262L78.8,262z"/>
		</g>
	</g>
	<g>
		<g>
			<path class="st0" d="M151.9,233.6c2.1,5.6,3.9,11.2,5.3,17c0.7,2.9,1.4,5.8,1.9,8.7c0.3,1.5,0.5,2.9,0.8,4.4
				c0.1,0.7,0.2,1.3,0.3,2c0.1,1,0.1,0.4,0,0.2c0.1,0.5,0.1,1,0.2,1.5c0.1,1.5,0.2,2.9,0.2,4.4c0,0.3,0,0.6-0.1,1
				c-0.1,1-0.1,0.4,0,0.2c-0.1,0.6-0.3,1.3-0.5,1.9c0,0-0.4,1.2-0.2,0.5c0.2-0.6-0.1,0.2-0.2,0.3c-0.3,0.5-0.6,1-0.9,1.5
				c0.1-0.2,0.6-0.7,0,0c-0.2,0.2-0.3,0.4-0.5,0.6s-0.4,0.4-0.6,0.5c0.8-0.7-0.2,0.1-0.4,0.2c-0.7,0.4-0.3,0.2-0.1,0.1
				c-0.3,0.1-0.7,0.2-1.1,0.3c-0.4,0.1-0.7,0.2-1.1,0.3c-0.2,0-0.9,0.1-0.1,0c-0.6,0.1-1.2,0.1-1.8,0.1c-0.3,0-0.6,0-0.9,0
				c-0.6,0-0.6-0.1-0.1,0c-0.1,0-0.3-0.1-0.5-0.1c-1.2-0.4,0,0.1,0.1,0.1c-0.2,0.1-0.5-0.4-0.7-0.4c-0.5-0.1,0.7,0.7,0.1,0
				c-0.1-0.2-0.3-0.3-0.5-0.5c-0.5-0.4-0.1,0.1,0.1,0.2c-0.1,0-0.3-0.4-0.4-0.6c-0.1-0.2-0.2-0.4-0.3-0.6s-0.2-0.4-0.3-0.6
				c0.1,0.2,0.1,0.3,0.2,0.5c-0.3-0.3-0.4-1.3-0.5-1.7c-0.1-0.5-0.3-1.2-0.3-1.7c0,1.3,0-0.5,0-0.8c0-0.8,0-1.5,0-2.3
				c0-0.9,0.1-1.8,0.1-2.7c0-0.3,0.1-0.7,0.1-1s0-0.3,0,0c0-0.2,0.1-0.5,0.1-0.7c0.3-1.7,0.7-3.4,1.2-5c0.7-2.3-0.8-5.2-3.3-5.8
				c-2.5-0.6-5.1,0.8-5.8,3.3c-1.8,6.2-2.9,13.6-1,20c0.9,2.9,2.4,5.5,4.8,7.4c2.9,2.2,6.5,2.6,10.1,2.2c3.8-0.5,7.5-1.8,10.1-4.7
				c2.2-2.5,3.7-5.6,4.2-8.8c0.6-3.8,0.2-7.5-0.3-11.3c-0.5-3.4-1.1-6.8-1.8-10.2c-1.6-7.6-3.8-15-6.6-22.3
				c-0.9-2.3-3.2-4.1-5.8-3.3C152.9,228.6,150.9,231.2,151.9,233.6L151.9,233.6z"/>
		</g>
	</g>
	<g>
		<g>
			<path class="st0" d="M150.4,261.8c3.4-8.5,6.2-17.3,8.2-26.3c0.5-2.4-0.7-5.2-3.3-5.8c-2.4-0.5-5.2,0.7-5.8,3.3
				c-2,9-4.8,17.8-8.2,26.3c-0.9,2.3,1,5.2,3.3,5.8C147.3,265.7,149.4,264.2,150.4,261.8L150.4,261.8z"/>
		</g>
	</g>
	<g>
		<g>
			<path class="st0" d="M51.2,71.2c-0.6,0.4-1.2,0.9-1.8,1.4c-0.3,0.2-0.5,0.5-0.8,0.8c-0.5,0.6-1,1.2-1.4,1.8
				c-0.2,0.3-0.4,0.6-0.6,1c-0.3,0.5-0.5,1.1-0.6,1.7s-0.1,1.2,0.1,1.9c0.1,0.6,0.4,1.1,0.9,1.6c0.3,0.5,0.8,0.9,1.3,1.2
				c0.4,0.2,0.8,0.3,1.1,0.5c0.8,0.2,1.7,0.2,2.5,0c0.4-0.2,0.8-0.3,1.1-0.5c0.7-0.4,1.3-1,1.7-1.7c0.3-0.5,0.5-0.9,0.9-1.3
				c-0.2,0.3-0.5,0.6-0.7,0.9c0.5-0.6,1.1-1.2,1.7-1.7c-0.3,0.2-0.6,0.5-1,0.7c0.1-0.1,0.2-0.2,0.3-0.2c0.5-0.3,1-0.7,1.3-1.2
				c0.4-0.4,0.7-1,0.9-1.6s0.2-1.2,0.1-1.9c0-0.6-0.2-1.2-0.6-1.7c-0.2-0.3-0.5-0.6-0.7-0.9c-0.6-0.6-1.3-1-2.1-1.2
				c-0.4-0.1-0.8-0.1-1.3-0.2C52.7,70.5,51.9,70.8,51.2,71.2L51.2,71.2z"/>
		</g>
	</g>
	<g>
		<g>
			<path class="st0" d="M46.8,76c-4.3,5.2-8.1,10.9-11.1,17c-0.6,1.2-0.8,2.3-0.5,3.6c0.3,1.1,1.1,2.3,2.2,2.8
				c2.1,1.1,5.3,0.7,6.5-1.7c1.4-2.8,2.9-5.6,4.6-8.2c0.8-1.3,1.7-2.6,2.6-3.8c0.2-0.3,0.5-0.6,0.7-0.9c0.1-0.2,0.2-0.3,0.3-0.5
				c0.1-0.1,0.5-0.7,0.1-0.1s0,0,0.1-0.1c0.1-0.2,0.2-0.3,0.4-0.5c0.3-0.3,0.5-0.7,0.8-1c0.8-1,1.4-2,1.4-3.3c0-1.1-0.5-2.5-1.4-3.3
				C51.7,74.5,48.5,74,46.8,76L46.8,76z"/>
		</g>
	</g>
</g>
</svg>
