<?xml version="1.0" encoding="utf-8"?>
<!-- Generator: Adobe Illustrator 26.5.0, SVG Export Plug-In . SVG Version: 6.00 Build 0)  -->
<svg version="1.1" id="Capa_1" xmlns="http://www.w3.org/2000/svg" xmlns:xlink="http://www.w3.org/1999/xlink" x="0px" y="0px"
	 viewBox="0 0 500 500" style="enable-background:new 0 0 500 500;" xml:space="preserve">
<style type="text/css">
	.st0{fill:#171824;}
</style>
<path class="st0" d="M116,496h271.2c45.4,0,82.2-36.8,82.2-82.2c0-3.4-0.2-6.9-0.6-10.3L443,198.1c-5.2-41-40.1-71.8-81.5-71.9h-7.2
	v-20.5C354.3,49,308.3,3,251.6,3S148.9,49,148.9,105.7v20.5h-7.2c-41.4,0.1-76.3,30.8-81.5,71.9L34.5,403.6
	c-5.7,45,26.2,86.1,71.3,91.8C109.1,495.8,112.6,496,116,496z M190,105.7c0-34,27.6-61.6,61.6-61.6s61.6,27.6,61.6,61.6v20.5H190
	V105.7z M75.2,408.7l25.7-205.4c2.6-20.6,20-36,40.8-36h7.2v41.1c0,11.3,9.2,20.5,20.5,20.5s20.5-9.2,20.5-20.5v-41.1h123.3v41.1
	c0,11.3,9.2,20.5,20.5,20.5s20.5-9.2,20.5-20.5v-41.1h7.2c20.7,0,38.2,15.4,40.8,36L428,408.7c2.8,22.5-13.2,43-35.7,45.9
	c-1.7,0.2-3.4,0.3-5.1,0.3H116c-22.7,0-41.1-18.4-41.1-41.1C75,412.1,75.1,410.4,75.2,408.7L75.2,408.7z"/>
</svg>
