<?xml version="1.0" encoding="utf-8"?>
<!-- Generator: Adobe Illustrator 26.3.0, SVG Export Plug-In . SVG Version: 6.00 Build 0)  -->
<svg version="1.1" id="Capa_1" xmlns="http://www.w3.org/2000/svg" xmlns:xlink="http://www.w3.org/1999/xlink" x="0px" y="0px"
	 viewBox="0 0 500 500" style="enable-background:new 0 0 500 500;" xml:space="preserve">
<g id="about">
	<path d="M250.5,249c67.9,0,123-55.1,123-123S318.4,3,250.5,3s-123,55.1-123,123S182.5,249,250.5,249z M250.5,38.1
		c48.5,0,87.9,39.3,87.9,87.9s-39.3,87.9-87.9,87.9s-87.9-39.3-87.9-87.9S201.9,38.1,250.5,38.1z"/>
	<path d="M268,284.1h-35.1c-106.7,0-193.3,86.5-193.3,193.3c0,9.7,7.9,17.6,17.6,17.6h386.6c9.7,0,17.6-7.9,17.6-17.6
		C461.3,370.7,374.8,284.1,268,284.1z M75.8,459.9c8.9-80,76.6-140.5,157.1-140.6H268c80.5,0,148.1,60.6,157.1,140.6H75.8z"/>
</g>
</svg>
